<svg width="1161" height="72" xmlns="http://www.w3.org/2000/svg" xmlns:xlink="http://www.w3.org/1999/xlink" xml:space="preserve" overflow="hidden"><g transform="translate(-43 -243)"><path d="M21.7378-20.2246C21.7378-20.4865 21.5341-20.4865 21.4759-20.4865 21.4177-20.4865 21.3013-20.4865 21.0685-20.1955L19.0606-17.7511C18.0421-19.4971 16.4416-20.4865 14.2591-20.4865 7.97345-20.4865 1.45501-14.1136 1.45501-7.27503 1.45501-2.41531 4.85972 0.611104 9.10835 0.611104 11.4364 0.611104 13.4734-0.378301 15.1612-1.80421 17.6929-3.92852 18.4495-6.75123 18.4495-6.98403 18.4495-7.24594 18.2167-7.24594 18.1294-7.24594 17.8675-7.24594 17.8384-7.07134 17.7802-6.95494 16.4416-2.41531 12.5131-0.232801 9.60306-0.232801 6.51844-0.232801 3.84121-2.21161 3.84121-6.34384 3.84121-7.27503 4.13221-12.3385 7.42054-16.1506 9.02104-18.013 11.7565-19.6426 14.521-19.6426 17.722-19.6426 19.1479-16.9945 19.1479-14.0263 19.1479-13.2697 19.0606-12.6295 19.0606-12.5131 19.0606-12.2512 19.3516-12.2512 19.4389-12.2512 19.759-12.2512 19.7881-12.2803 19.9045-12.8041L21.7378-20.2246Z" transform="matrix(1 0 0 1.00617 43 287.371)"/><path d="M8.75915-3.46293C8.61364-2.96822 8.61364-2.91002 8.20624-2.35711 7.56603-1.54231 6.28564-0.291002 4.91791-0.291002 3.72481-0.291002 3.05551-1.36771 3.05551-3.08462 3.05551-4.68512 3.95761-7.94434 4.51052-9.16655 5.49993-11.2036 6.86763-12.2512 8.00253-12.2512 9.92314-12.2512 10.3014-9.86494 10.3014-9.63214 10.3014-9.60306 10.2141-9.22475 10.1851-9.16655L8.75915-3.46293ZM10.6216-10.9126C10.3014-11.6691 9.51574-12.8332 8.00253-12.8332 4.71423-12.8332 1.16401-8.58453 1.16401-4.27772 1.16401-1.39681 2.85182 0.291002 4.83063 0.291002 6.43113 0.291002 7.79885-0.960306 8.61364-1.92061 8.90464-0.203701 10.2723 0.291002 11.1454 0.291002 12.0184 0.291002 12.7168-0.232801 13.2406-1.28041 13.7062-2.26981 14.1136-4.04492 14.1136-4.16132 14.1136-4.30681 13.9972-4.42323 13.8226-4.42323 13.5607-4.42323 13.5316-4.27772 13.4152-3.84121 12.9786-2.12431 12.4258-0.291002 11.2326-0.291002 10.3888-0.291002 10.3305-1.0476 10.3305-1.62961 10.3305-2.29891 10.4178-2.61902 10.6798-3.75393 10.8834-4.48143 11.029-5.12162 11.2618-5.96553 12.3385-10.3305 12.6004-11.3782 12.6004-11.5527 12.6004-11.9601 12.2803-12.2803 11.8437-12.2803 10.9126-12.2803 10.6798-11.2618 10.6216-10.9126Z" transform="matrix(1 0 0 1.00617 65.3993 287.371)"/><path d="M11.32-11.9019C10.4178-11.7273 9.95225-11.0872 9.95225-10.447 9.95225-9.74854 10.5052-9.51574 10.9126-9.51574 11.7273-9.51574 12.3967-10.2141 12.3967-11.0872 12.3967-12.0183 11.4946-12.8332 10.0395-12.8332 8.87555-12.8332 7.53694-12.3094 6.31473-10.5342 6.11104-12.0765 4.94703-12.8332 3.78301-12.8332 2.64811-12.8332 2.06611-11.9601 1.71691-11.32 1.22221-10.2723 0.785705-8.52633 0.785705-8.38084 0.785705-8.26444 0.902104-8.11893 1.1058-8.11893 1.33861-8.11893 1.36771-8.14805 1.54231-8.81735 1.97881-10.5634 2.53171-12.2512 3.69573-12.2512 4.39412-12.2512 4.59783-11.7565 4.59783-10.9126 4.59783-10.2723 4.30681-9.13744 4.10312-8.23533L3.28831-5.09251C3.17191-4.53963 2.85182-3.23011 2.70631-2.70631 2.5026-1.94971 2.18251-0.582002 2.18251-0.436503 2.18251-0.0291002 2.5026 0.291002 2.93911 0.291002 3.25922 0.291002 3.81213 0.0873004 3.98672-0.494703 4.07401-0.727503 5.15071-5.12162 5.32534-5.79093 5.47082-6.43113 5.64542-7.04223 5.79093-7.68243 5.90733-8.08985 6.02373-8.55544 6.11104-8.93375 6.19833-9.19563 6.98403-10.6216 7.71154-11.2618 8.06073-11.5819 8.81735-12.2512 10.0105-12.2512 10.476-12.2512 10.9416-12.1639 11.32-11.9019Z" transform="matrix(1 0 0 1.00617 80.3009 287.371)"/><path d="M11.32-11.9019C10.4178-11.7273 9.95225-11.0872 9.95225-10.447 9.95225-9.74854 10.5052-9.51574 10.9126-9.51574 11.7273-9.51574 12.3967-10.2141 12.3967-11.0872 12.3967-12.0183 11.4946-12.8332 10.0395-12.8332 8.87555-12.8332 7.53694-12.3094 6.31473-10.5342 6.11104-12.0765 4.94703-12.8332 3.78301-12.8332 2.64811-12.8332 2.06611-11.9601 1.71691-11.32 1.22221-10.2723 0.785705-8.52633 0.785705-8.38084 0.785705-8.26444 0.902104-8.11893 1.1058-8.11893 1.33861-8.11893 1.36771-8.14805 1.54231-8.81735 1.97881-10.5634 2.53171-12.2512 3.69573-12.2512 4.39412-12.2512 4.59783-11.7565 4.59783-10.9126 4.59783-10.2723 4.30681-9.13744 4.10312-8.23533L3.28831-5.09251C3.17191-4.53963 2.85182-3.23011 2.70631-2.70631 2.5026-1.94971 2.18251-0.582002 2.18251-0.436503 2.18251-0.0291002 2.5026 0.291002 2.93911 0.291002 3.25922 0.291002 3.81213 0.0873004 3.98672-0.494703 4.07401-0.727503 5.15071-5.12162 5.32534-5.79093 5.47082-6.43113 5.64542-7.04223 5.79093-7.68243 5.90733-8.08985 6.02373-8.55544 6.11104-8.93375 6.19833-9.19563 6.98403-10.6216 7.71154-11.2618 8.06073-11.5819 8.81735-12.2512 10.0105-12.2512 10.476-12.2512 10.9416-12.1639 11.32-11.9019Z" transform="matrix(1 0 0 1.00617 93.8852 287.371)"/><path d="M8.23533-4.16132C8.23533-4.30681 8.11893-4.42323 7.94434-4.42323 7.68243-4.42323 7.65334-4.33592 7.50783-3.84121 6.75123-1.19311 5.55813-0.291002 4.59783-0.291002 4.24861-0.291002 3.84121-0.378301 3.84121-1.25131 3.84121-2.03701 4.19041-2.91002 4.51052-3.78301L6.54752-9.19563C6.63484-9.42843 6.83852-9.95225 6.83852-10.5052 6.83852-11.7273 5.96553-12.8332 4.53963-12.8332 1.86241-12.8332 0.785705-8.61364 0.785705-8.38084 0.785705-8.26444 0.902104-8.11893 1.1058-8.11893 1.36771-8.11893 1.39681-8.23533 1.51321-8.64273 2.21161-11.0872 3.31742-12.2512 4.45232-12.2512 4.71423-12.2512 5.20894-12.2221 5.20894-11.2909 5.20894-10.5342 4.83063-9.57394 4.59783-8.93375L2.5608-3.52113C2.38621-3.05551 2.21161-2.58991 2.21161-2.06611 2.21161-0.756603 3.11371 0.291002 4.51052 0.291002 7.18774 0.291002 8.23533-3.95761 8.23533-4.16132ZM8.00253-18.1585C8.00253-18.595 7.65334-19.1188 7.01314-19.1188 6.34384-19.1188 5.58722-18.4786 5.58722-17.722 5.58722-16.9945 6.19833-16.7617 6.54752-16.7617 7.33323-16.7617 8.00253-17.5183 8.00253-18.1585Z" transform="matrix(1 0 0 1.00617 107.469 287.371)"/><path d="M5.20894-6.75123C5.99462-6.75123 7.97345-6.80943 9.37023-7.33323 11.5819-8.17713 11.7855-9.86494 11.7855-10.3888 11.7855-11.6691 10.6798-12.8332 8.75915-12.8332 5.70362-12.8332 1.30951-10.0687 1.30951-4.88883 1.30951-1.83331 3.05551 0.291002 5.70362 0.291002 9.66126 0.291002 12.1639-2.79362 12.1639-3.17191 12.1639-3.34651 11.9893-3.49202 11.8729-3.49202 11.7855-3.49202 11.7565-3.46293 11.4946-3.20102 9.63214-0.727503 6.86763-0.291002 5.76182-0.291002 4.10312-0.291002 3.23011-1.60051 3.23011-3.75393 3.23011-4.16132 3.23011-4.88883 3.66661-6.75123L5.20894-6.75123ZM3.81213-7.33323C5.06343-11.8147 7.82794-12.2512 8.75915-12.2512 10.0395-12.2512 10.9126-11.4946 10.9126-10.3888 10.9126-7.33323 6.25653-7.33323 5.03431-7.33323L3.81213-7.33323Z" transform="matrix(1 0 0 1.00617 117.153 287.371)"/><path d="M11.32-11.9019C10.4178-11.7273 9.95225-11.0872 9.95225-10.447 9.95225-9.74854 10.5052-9.51574 10.9126-9.51574 11.7273-9.51574 12.3967-10.2141 12.3967-11.0872 12.3967-12.0183 11.4946-12.8332 10.0395-12.8332 8.87555-12.8332 7.53694-12.3094 6.31473-10.5342 6.11104-12.0765 4.94703-12.8332 3.78301-12.8332 2.64811-12.8332 2.06611-11.9601 1.71691-11.32 1.22221-10.2723 0.785705-8.52633 0.785705-8.38084 0.785705-8.26444 0.902104-8.11893 1.1058-8.11893 1.33861-8.11893 1.36771-8.14805 1.54231-8.81735 1.97881-10.5634 2.53171-12.2512 3.69573-12.2512 4.39412-12.2512 4.59783-11.7565 4.59783-10.9126 4.59783-10.2723 4.30681-9.13744 4.10312-8.23533L3.28831-5.09251C3.17191-4.53963 2.85182-3.23011 2.70631-2.70631 2.5026-1.94971 2.18251-0.582002 2.18251-0.436503 2.18251-0.0291002 2.5026 0.291002 2.93911 0.291002 3.25922 0.291002 3.81213 0.0873004 3.98672-0.494703 4.07401-0.727503 5.15071-5.12162 5.32534-5.79093 5.47082-6.43113 5.64542-7.04223 5.79093-7.68243 5.90733-8.08985 6.02373-8.55544 6.11104-8.93375 6.19833-9.19563 6.98403-10.6216 7.71154-11.2618 8.06073-11.5819 8.81735-12.2512 10.0105-12.2512 10.476-12.2512 10.9416-12.1639 11.32-11.9019Z" transform="matrix(1 0 0 1.00617 130.31 287.371)"/><path d="M14.6374-19.468C14.6665-19.5844 14.7247-19.759 14.7247-19.9045 14.7247-20.1955 14.4337-20.1955 14.3755-20.1955 14.3464-20.1955 12.9205-20.0791 12.775-20.05 12.2803-20.0209 11.8437-19.9627 11.32-19.9336 10.5924-19.8754 10.3888-19.8463 10.3888-19.3225 10.3888-19.0315 10.6216-19.0315 11.029-19.0315 12.4549-19.0315 12.484-18.7696 12.484-18.4786 12.484-18.304 12.4258-18.0712 12.3967-17.9839L10.6216-10.9126C10.3014-11.6691 9.51574-12.8332 8.00253-12.8332 4.71423-12.8332 1.16401-8.58453 1.16401-4.27772 1.16401-1.39681 2.85182 0.291002 4.83063 0.291002 6.43113 0.291002 7.79885-0.960306 8.61364-1.92061 8.90464-0.203701 10.2723 0.291002 11.1454 0.291002 12.0184 0.291002 12.7168-0.232801 13.2406-1.28041 13.7062-2.26981 14.1136-4.04492 14.1136-4.16132 14.1136-4.30681 13.9972-4.42323 13.8226-4.42323 13.5607-4.42323 13.5316-4.27772 13.4152-3.84121 12.9786-2.12431 12.4258-0.291002 11.2326-0.291002 10.3888-0.291002 10.3305-1.0476 10.3305-1.62961 10.3305-1.74601 10.3305-2.35711 10.5342-3.17191L14.6374-19.468ZM8.75915-3.46293C8.61364-2.96822 8.61364-2.91002 8.20624-2.35711 7.56603-1.54231 6.28564-0.291002 4.91791-0.291002 3.72481-0.291002 3.05551-1.36771 3.05551-3.08462 3.05551-4.68512 3.95761-7.94434 4.51052-9.16655 5.49993-11.2036 6.86763-12.2512 8.00253-12.2512 9.92314-12.2512 10.3014-9.86494 10.3014-9.63214 10.3014-9.60306 10.2141-9.22475 10.1851-9.16655L8.75915-3.46293Z" transform="matrix(1 0 0 1.00617 148.744 287.371)"/><path d="M5.20894-6.75123C5.99462-6.75123 7.97345-6.80943 9.37023-7.33323 11.5819-8.17713 11.7855-9.86494 11.7855-10.3888 11.7855-11.6691 10.6798-12.8332 8.75915-12.8332 5.70362-12.8332 1.30951-10.0687 1.30951-4.88883 1.30951-1.83331 3.05551 0.291002 5.70362 0.291002 9.66126 0.291002 12.1639-2.79362 12.1639-3.17191 12.1639-3.34651 11.9893-3.49202 11.8729-3.49202 11.7855-3.49202 11.7565-3.46293 11.4946-3.20102 9.63214-0.727503 6.86763-0.291002 5.76182-0.291002 4.10312-0.291002 3.23011-1.60051 3.23011-3.75393 3.23011-4.16132 3.23011-4.88883 3.66661-6.75123L5.20894-6.75123ZM3.81213-7.33323C5.06343-11.8147 7.82794-12.2512 8.75915-12.2512 10.0395-12.2512 10.9126-11.4946 10.9126-10.3888 10.9126-7.33323 6.25653-7.33323 5.03431-7.33323L3.81213-7.33323Z" transform="matrix(1 0 0 1.00617 163.495 287.371)"/><path d="M5.99462-8.52633C6.05282-8.70095 6.78032-10.1559 7.85705-11.0872 8.61364-11.7855 9.60306-12.2512 10.738-12.2512 11.9019-12.2512 12.3094-11.3782 12.3094-10.2141 12.3094-8.55544 11.1162-5.23802 10.5342-3.66661 10.2723-2.96822 10.1269-2.58991 10.1269-2.06611 10.1269-0.756603 11.029 0.291002 12.4258 0.291002 15.1321 0.291002 16.1506-3.98672 16.1506-4.16132 16.1506-4.30681 16.0342-4.42323 15.8596-4.42323 15.5977-4.42323 15.5686-4.33592 15.4231-3.84121 14.7538-1.45501 13.648-0.291002 12.5131-0.291002 12.2221-0.291002 11.7565-0.320102 11.7565-1.25131 11.7565-1.97881 12.0765-2.85182 12.2512-3.25922 12.8332-4.85972 14.0554-8.11893 14.0554-9.77765 14.0554-11.5237 13.0369-12.8332 10.8252-12.8332 8.23533-12.8332 6.86763-10.9998 6.34384-10.2723 6.25653-11.9311 5.06343-12.8332 3.78301-12.8332 2.85182-12.8332 2.21161-12.2803 1.71691-11.2909 1.19311-10.2432 0.785705-8.49724 0.785705-8.38084 0.785705-8.26444 0.902104-8.11893 1.1058-8.11893 1.33861-8.11893 1.36771-8.14805 1.54231-8.81735 2.00791-10.5924 2.53171-12.2512 3.69573-12.2512 4.36503-12.2512 4.59783-11.7855 4.59783-10.9126 4.59783-10.2723 4.30681-9.13744 4.10312-8.23533L3.28831-5.09251C3.17191-4.53963 2.85182-3.23011 2.70631-2.70631 2.5026-1.94971 2.18251-0.582002 2.18251-0.436503 2.18251-0.0291002 2.5026 0.291002 2.93911 0.291002 3.28831 0.291002 3.69573 0.116401 3.92852-0.320102 3.98672-0.465603 4.24861-1.48411 4.39412-2.06611L5.03431-4.68512 5.99462-8.52633Z" transform="matrix(1 0 0 1.00617 176.652 287.371)"/><path d="M6.63484-5.82002C7.12954-5.73273 7.91525-5.55813 8.08985-5.52902 8.46813-5.41262 9.77765-4.94703 9.77765-3.55022 9.77765-2.64811 8.96284-0.291002 5.58722-0.291002 4.97611-0.291002 2.79362-0.378301 2.21161-1.97881 3.37562-1.83331 3.95761-2.73542 3.95761-3.37562 3.95761-3.98672 3.55022-4.30681 2.96822-4.30681 2.32801-4.30681 1.48411-3.81213 1.48411-2.5026 1.48411-0.785705 3.23011 0.291002 5.55813 0.291002 9.98134 0.291002 11.2909-2.96822 11.2909-4.48143 11.2909-4.91791 11.2909-5.73273 10.3596-6.66392 9.63214-7.36234 8.93375-7.50783 7.36234-7.82794 6.57664-8.00253 5.32534-8.26444 5.32534-9.57394 5.32534-10.1559 5.84913-12.2512 8.61364-12.2512 9.83585-12.2512 11.029-11.7855 11.32-10.738 10.0395-10.738 9.98134-9.63214 9.98134-9.60306 9.98134-8.99195 10.5342-8.81735 10.7962-8.81735 11.2036-8.81735 12.0183-9.13744 12.0183-10.3596 12.0183-11.5819 10.9126-12.8332 8.64273-12.8332 4.83063-12.8332 3.81213-9.83585 3.81213-8.64273 3.81213-6.43113 5.96553-5.96553 6.63484-5.82002Z" transform="matrix(1 0 0 1.00617 193.597 287.371)"/><path d="M8.23533-4.16132C8.23533-4.30681 8.11893-4.42323 7.94434-4.42323 7.68243-4.42323 7.65334-4.33592 7.50783-3.84121 6.75123-1.19311 5.55813-0.291002 4.59783-0.291002 4.24861-0.291002 3.84121-0.378301 3.84121-1.25131 3.84121-2.03701 4.19041-2.91002 4.51052-3.78301L6.54752-9.19563C6.63484-9.42843 6.83852-9.95225 6.83852-10.5052 6.83852-11.7273 5.96553-12.8332 4.53963-12.8332 1.86241-12.8332 0.785705-8.61364 0.785705-8.38084 0.785705-8.26444 0.902104-8.11893 1.1058-8.11893 1.36771-8.11893 1.39681-8.23533 1.51321-8.64273 2.21161-11.0872 3.31742-12.2512 4.45232-12.2512 4.71423-12.2512 5.20894-12.2221 5.20894-11.2909 5.20894-10.5342 4.83063-9.57394 4.59783-8.93375L2.5608-3.52113C2.38621-3.05551 2.21161-2.58991 2.21161-2.06611 2.21161-0.756603 3.11371 0.291002 4.51052 0.291002 7.18774 0.291002 8.23533-3.95761 8.23533-4.16132ZM8.00253-18.1585C8.00253-18.595 7.65334-19.1188 7.01314-19.1188 6.34384-19.1188 5.58722-18.4786 5.58722-17.722 5.58722-16.9945 6.19833-16.7617 6.54752-16.7617 7.33323-16.7617 8.00253-17.5183 8.00253-18.1585Z" transform="matrix(1 0 0 1.00617 206.968 287.371)"/><path d="M5.84913-11.6983 8.52633-11.6983C9.07924-11.6983 9.37023-11.6983 9.37023-12.2221 9.37023-12.5422 9.19563-12.5422 8.61364-12.5422L6.05282-12.5422 7.12954-16.7908C7.24594-17.1982 7.24594-17.2564 7.24594-17.4601 7.24594-17.9257 6.86763-18.1876 6.48932-18.1876 6.25653-18.1876 5.58722-18.1003 5.35442-17.1691L4.21952-12.5422 1.48411-12.5422C0.902104-12.5422 0.640204-12.5422 0.640204-11.9893 0.640204-11.6983 0.843904-11.6983 1.39681-11.6983L3.98672-11.6983 2.06611-4.01581C1.83331-2.99731 1.74601-2.70631 1.74601-2.32801 1.74601-0.960306 2.70631 0.291002 4.33592 0.291002 7.27503 0.291002 8.84644-3.95761 8.84644-4.16132 8.84644-4.33592 8.73004-4.42323 8.55544-4.42323 8.49724-4.42323 8.38084-4.42323 8.32264-4.30681 8.29353-4.27772 8.26444-4.24861 8.06073-3.78301 7.44963-2.32801 6.11104-0.291002 4.42323-0.291002 3.55022-0.291002 3.49202-1.01851 3.49202-1.65871 3.49202-1.68781 3.49202-2.24071 3.57933-2.58991L5.84913-11.6983Z" transform="matrix(1 0 0 1.00617 216.653 287.371)"/><path d="M7.65334 3.25922C6.86763 4.36503 5.73273 5.35442 4.30681 5.35442 3.95761 5.35442 2.5608 5.29622 2.12431 3.95761 2.21161 3.98672 2.35711 3.98672 2.41531 3.98672 3.28831 3.98672 3.87032 3.23011 3.87032 2.5608 3.87032 1.89149 3.31742 1.65871 2.88091 1.65871 2.41531 1.65871 1.39681 2.00791 1.39681 3.43382 1.39681 4.91791 2.64811 5.93642 4.30681 5.93642 7.21683 5.93642 10.1559 3.25922 10.9708 0.0291002L13.8226-11.32C13.8517-11.4655 13.9099-11.6401 13.9099-11.8147 13.9099-12.2512 13.5607-12.5422 13.1242-12.5422 12.8623-12.5422 12.2512-12.4258 12.0183-11.5527L9.86494-2.99731C9.71945-2.47351 9.71945-2.41531 9.48663-2.09521 8.90464-1.28041 7.94434-0.291002 6.54752-0.291002 4.91791-0.291002 4.77243-1.89151 4.77243-2.67722 4.77243-4.33592 5.55813-6.57664 6.34384-8.67184 6.66392-9.51574 6.83852-9.92314 6.83852-10.5052 6.83852-11.7273 5.96553-12.8332 4.53963-12.8332 1.86241-12.8332 0.785705-8.61364 0.785705-8.38084 0.785705-8.26444 0.902104-8.11893 1.1058-8.11893 1.36771-8.11893 1.39681-8.23533 1.51321-8.64273 2.21161-11.0872 3.31742-12.2512 4.45232-12.2512 4.71423-12.2512 5.20894-12.2512 5.20894-11.2909 5.20894-10.5342 4.88883-9.69034 4.45232-8.58453 3.02642-4.77243 3.02642-3.81213 3.02642-3.11371 3.02642-0.349202 5.00523 0.291002 6.46024 0.291002 7.30414 0.291002 8.35173 0.0291002 9.37023-1.0476L9.39935-1.01851C8.96284 0.698403 8.67184 1.83331 7.65334 3.25922Z" transform="matrix(1 0 0 1.00617 226.903 287.371)"/><path d="M9.45755 7.07134C9.45755 6.98403 9.45755 6.92583 8.96284 6.43113 6.05282 3.49202 4.42323-1.30951 4.42323-7.24594 4.42323-12.8914 5.79093-17.7511 9.16655-21.1849 9.45755-21.4468 9.45755-21.505 9.45755-21.5923 9.45755-21.7669 9.31203-21.8251 9.19563-21.8251 8.81735-21.8251 6.43113-19.7299 5.00523-16.8781 3.52113-13.939 2.85182-10.8252 2.85182-7.24594 2.85182-4.65603 3.25922-1.19311 4.77243 1.92061 6.48932 5.41262 8.87555 7.30414 9.19563 7.30414 9.31203 7.30414 9.45755 7.24594 9.45755 7.07134Z" transform="matrix(1 0 0 1.00617 246.639 287.371)"/><path d="M11.3782-10.9416C10.8252-10.9416 10.5634-10.9416 10.1559-10.5924 9.98134-10.447 9.66126-10.0105 9.66126-9.54486 9.66126-8.96284 10.0977-8.61364 10.6506-8.61364 11.3491-8.61364 12.1348-9.19563 12.1348-10.3596 12.1348-11.7565 10.7962-12.8332 8.78824-12.8332 4.97611-12.8332 1.16401-8.67184 1.16401-4.53963 1.16401-2.00791 2.73542 0.291002 5.70362 0.291002 9.66126 0.291002 12.1639-2.79362 12.1639-3.17191 12.1639-3.34651 11.9893-3.49202 11.8729-3.49202 11.7855-3.49202 11.7565-3.46293 11.4946-3.20102 9.63214-0.727503 6.86763-0.291002 5.76182-0.291002 3.75393-0.291002 3.11371-2.03701 3.11371-3.49202 3.11371-4.51052 3.60841-7.33323 4.65603-9.31203 5.41262-10.6798 6.98403-12.2512 8.81735-12.2512 9.19563-12.2512 10.7962-12.193 11.3782-10.9416Z" transform="matrix(1 0 0 1.00617 257.678 287.371)"/><path d="M5.99462-8.52633C6.05282-8.70095 6.78032-10.1559 7.85705-11.0872 8.61364-11.7855 9.60306-12.2512 10.738-12.2512 11.9019-12.2512 12.3094-11.3782 12.3094-10.2141 12.3094-10.0395 12.3094-9.45755 11.9601-8.08985L11.2326-5.09251C10.9998-4.21952 10.447-2.06611 10.3888-1.74601 10.2723-1.30951 10.0977-0.552902 10.0977-0.436503 10.0977-0.0291002 10.4178 0.291002 10.8544 0.291002 11.7273 0.291002 11.8729-0.378301 12.1348-1.42591L13.8808-8.38084C13.939-8.61364 15.4522-12.2512 18.6532-12.2512 19.8172-12.2512 20.2246-11.3782 20.2246-10.2141 20.2246-8.58453 19.0897-5.41262 18.4495-3.66661 18.1876-2.96822 18.0421-2.58991 18.0421-2.06611 18.0421-0.756603 18.9442 0.291002 20.341 0.291002 23.0473 0.291002 24.0658-3.98672 24.0658-4.16132 24.0658-4.30681 23.9494-4.42323 23.7748-4.42323 23.5129-4.42323 23.4838-4.33592 23.3383-3.84121 22.669-1.51321 21.5923-0.291002 20.4283-0.291002 20.1373-0.291002 19.6717-0.320102 19.6717-1.25131 19.6717-2.00791 20.0209-2.93911 20.1373-3.25922 20.6611-4.65603 21.9706-8.08985 21.9706-9.77765 21.9706-11.5237 20.9521-12.8332 18.7405-12.8332 16.7908-12.8332 15.2194-11.7273 14.0554-10.0105 13.9681-11.5819 13.0078-12.8332 10.8252-12.8332 8.23533-12.8332 6.86763-10.9998 6.34384-10.2723 6.25653-11.9311 5.06343-12.8332 3.78301-12.8332 2.93911-12.8332 2.26981-12.4258 1.71691-11.32 1.19311-10.2723 0.785705-8.49724 0.785705-8.38084 0.785705-8.26444 0.902104-8.11893 1.1058-8.11893 1.33861-8.11893 1.36771-8.14805 1.54231-8.81735 1.97881-10.5342 2.53171-12.2512 3.69573-12.2512 4.36503-12.2512 4.59783-11.7855 4.59783-10.9126 4.59783-10.2723 4.30681-9.13744 4.10312-8.23533L3.28831-5.09251C3.17191-4.53963 2.85182-3.23011 2.70631-2.70631 2.5026-1.94971 2.18251-0.582002 2.18251-0.436503 2.18251-0.0291002 2.5026 0.291002 2.93911 0.291002 3.28831 0.291002 3.69573 0.116401 3.92852-0.320102 3.98672-0.465603 4.24861-1.48411 4.39412-2.06611L5.03431-4.68512 5.99462-8.52633Z" transform="matrix(1 0 0 1.00617 269.894 287.371)"/><path d="M13.5607-4.40383C13.8711-4.40383 14.2979-4.40383 14.2979-4.85003 14.2979-5.29622 13.8711-5.29622 13.5607-5.29622L2.4444-5.29622C2.13401-5.29622 1.70721-5.29622 1.70721-4.85003 1.70721-4.40383 2.13401-4.40383 2.4444-4.40383L13.5607-4.40383Z" transform="matrix(1 0 0 1.00617 294.725 275.281)"/><path d="M4.90823-6.47964C6.44084-6.47964 7.41083-5.35442 7.41083-3.31742 7.41083-0.892404 6.03342-0.174601 5.00523-0.174601 3.93821-0.174601 2.4832-0.562602 1.80421-1.59081 2.5026-1.59081 2.98762-2.03701 2.98762-2.67722 2.98762-3.29802 2.5414-3.74421 1.92061-3.74421 1.39681-3.74421 0.853604-3.41442 0.853604-2.63842 0.853604-0.795405 2.83242 0.407401 5.04403 0.407401 7.62423 0.407401 9.42843-1.37741 9.42843-3.31742 9.42843-4.92763 8.14805-6.40204 6.16924-6.82883 7.70183-7.37203 8.84644-8.69124 8.84644-10.2432 8.84644-11.7953 7.10043-12.901 5.08283-12.901 3.00702-12.901 1.43561-11.7759 1.43561-10.3014 1.43561-9.58366 1.92061-9.27323 2.42501-9.27323 3.02642-9.27323 3.41442-9.70006 3.41442-10.2626 3.41442-10.9804 2.79362-11.2521 2.36681-11.2715 3.18162-12.3385 4.67543-12.3967 5.02463-12.3967 5.52902-12.3967 7.00343-12.2415 7.00343-10.2432 7.00343-8.88524 6.44084-8.07045 6.16924-7.76002 5.58722-7.15863 5.14103-7.11983 3.95761-7.04223 3.58902-7.02283 3.43382-7.00343 3.43382-6.75123 3.43382-6.47964 3.60841-6.47964 3.93821-6.47964L4.90823-6.47964Z" transform="matrix(1 0 0 1.00617 310.697 275.281)"/><path d="M8.20624-7.24594C8.20624-9.45755 7.91525-13.066 6.28564-16.4416 4.56872-19.9336 2.18251-21.8251 1.86241-21.8251 1.74601-21.8251 1.60051-21.7669 1.60051-21.5923 1.60051-21.505 1.60051-21.4468 2.09521-20.9521 5.00523-18.013 6.63484-13.2115 6.63484-7.27503 6.63484-1.62961 5.26714 3.23011 1.89151 6.66392 1.60051 6.92583 1.60051 6.98403 1.60051 7.07134 1.60051 7.24594 1.74601 7.30414 1.86241 7.30414 2.24071 7.30414 4.62692 5.20894 6.05282 2.35711 7.53694-0.611104 8.20624-3.75393 8.20624-7.24594Z" transform="matrix(1 0 0 1.00617 322.415 287.371)"/><path d="M19.6426-9.42843C20.05-9.42843 20.5738-9.42843 20.5738-9.95225 20.5738-10.5052 20.0791-10.5052 19.6426-10.5052L2.5026-10.5052C2.09521-10.5052 1.57141-10.5052 1.57141-9.98134 1.57141-9.42843 2.06611-9.42843 2.5026-9.42843L19.6426-9.42843ZM19.6426-4.01581C20.05-4.01581 20.5738-4.01581 20.5738-4.53963 20.5738-5.09251 20.0791-5.09251 19.6426-5.09251L2.5026-5.09251C2.09521-5.09251 1.57141-5.09251 1.57141-4.56872 1.57141-4.01581 2.06611-4.01581 2.5026-4.01581L19.6426-4.01581Z" transform="matrix(1 0 0 1.00617 341.537 287.371)"/><path d="M8.64273-9.48663 11.4364-9.48663C13.648-9.48663 13.8226-8.99195 13.8226-8.14805 13.8226-7.76974 13.7644-7.36234 13.6189-6.72212 13.5607-6.60572 13.5316-6.46024 13.5316-6.40204 13.5316-6.19833 13.648-6.08193 13.8517-6.08193 14.0845-6.08193 14.1136-6.19833 14.23-6.66392L15.9178-13.4443C15.9178-13.5607 15.8305-13.7353 15.6268-13.7353 15.3649-13.7353 15.3358-13.6189 15.2194-13.1242 14.6083-10.9416 14.0263-10.3305 11.4946-10.3305L8.84644-10.3305 10.738-17.8675C10.9998-18.886 11.058-18.9733 12.2512-18.9733L16.1506-18.9733C19.7881-18.9733 20.3119-17.8966 20.3119-15.8305 20.3119-15.6559 20.3119-15.0157 20.2246-14.2591 20.1955-14.1427 20.1373-13.7644 20.1373-13.648 20.1373-13.4152 20.2828-13.3279 20.4574-13.3279 20.6611-13.3279 20.7775-13.4443 20.8357-13.9681L21.4468-19.0606C21.4468-19.1479 21.505-19.4389 21.505-19.4971 21.505-19.8172 21.2431-19.8172 20.7193-19.8172L6.92583-19.8172C6.37293-19.8172 6.08193-19.8172 6.08193-19.2934 6.08193-18.9733 6.28564-18.9733 6.78032-18.9733 8.58453-18.9733 8.58453-18.7696 8.58453-18.4495 8.58453-18.304 8.55544-18.1876 8.46813-17.8675L4.53963-2.15341C4.27772-1.13491 4.21952-0.843904 2.18251-0.843904 1.62961-0.843904 1.33861-0.843904 1.33861-0.320102 1.33861 0 1.60051 0 1.77511 0 2.32801 0 2.91002-0.0582002 3.46293-0.0582002L7.24594-0.0582002C7.88614-0.0582002 8.58453 0 9.22475 0 9.48663 0 9.83585 0 9.83585-0.523802 9.83585-0.843904 9.66126-0.843904 9.02104-0.843904 6.72212-0.843904 6.66392-1.0476 6.66392-1.48411 6.66392-1.62961 6.72212-1.86241 6.78032-2.06611L8.64273-9.48663Z" transform="matrix(1 0 0 1.00617 371.701 287.371)"/><path d="M7.39143-19.468C7.42054-19.5844 7.47874-19.759 7.47874-19.9045 7.47874-20.1955 7.18774-20.1955 7.12954-20.1955 7.10043-20.1955 6.05282-20.1082 5.52902-20.05 5.03431-20.0209 4.59783-19.9627 4.07401-19.9336 3.37562-19.8754 3.17191-19.8463 3.17191-19.3225 3.17191-19.0315 3.46293-19.0315 3.75393-19.0315 5.23802-19.0315 5.23802-18.7696 5.23802-18.4786 5.23802-18.3622 5.23802-18.304 5.09251-17.7802L1.48411-3.34651C1.39681-3.02642 1.33861-2.79362 1.33861-2.32801 1.33861-0.873004 2.41531 0.291002 3.89941 0.291002 4.85972 0.291002 5.49993-0.349202 5.96553-1.25131 6.46024-2.21161 6.86763-4.04492 6.86763-4.16132 6.86763-4.30681 6.75123-4.42323 6.57664-4.42323 6.31473-4.42323 6.28564-4.27772 6.16924-3.84121 5.64542-1.83331 5.12162-0.291002 3.95761-0.291002 3.08462-0.291002 3.08462-1.22221 3.08462-1.62961 3.08462-1.74601 3.08462-2.35711 3.28831-3.17191L7.39143-19.468Z" transform="matrix(1 0 0 1.00617 394.034 287.371)"/><path d="M9.92314-1.68781C10.3014-0.0582002 11.6983 0.291002 12.3967 0.291002 13.3279 0.291002 14.0263-0.320102 14.4919-1.30951 14.9866-2.35711 15.3649-4.07401 15.3649-4.16132 15.3649-4.30681 15.2485-4.42323 15.0739-4.42323 14.812-4.42323 14.7829-4.27772 14.6665-3.84121 14.1427-1.83331 13.6189-0.291002 12.4549-0.291002 11.5819-0.291002 11.5819-1.25131 11.5819-1.62961 11.5819-2.29891 11.6691-2.58991 11.9601-3.81213 12.1639-4.59783 12.3676-5.38353 12.5422-6.19833L13.7353-10.9416C13.939-11.6691 13.939-11.7273 13.939-11.8147 13.939-12.2512 13.5898-12.5422 13.1533-12.5422 12.3094-12.5422 12.1057-11.8147 11.9311-11.0872 11.6401-9.95225 10.0687-3.69573 9.86494-2.67722 9.83585-2.67722 8.70095-0.291002 6.57664-0.291002 5.06343-0.291002 4.77243-1.60051 4.77243-2.67722 4.77243-4.33592 5.58722-6.66392 6.34384-8.61364 6.69303-9.54486 6.83852-9.92314 6.83852-10.5052 6.83852-11.7565 5.93642-12.8332 4.53963-12.8332 1.86241-12.8332 0.785705-8.61364 0.785705-8.38084 0.785705-8.26444 0.902104-8.11893 1.1058-8.11893 1.36771-8.11893 1.39681-8.23533 1.51321-8.64273 2.21161-11.1454 3.34651-12.2512 4.45232-12.2512 4.74332-12.2512 5.20894-12.2221 5.20894-11.2909 5.20894-10.5342 4.88883-9.69034 4.45232-8.58453 3.17191-5.12162 3.02642-4.01581 3.02642-3.14282 3.02642-0.174601 5.26714 0.291002 6.46024 0.291002 8.32264 0.291002 9.34115-0.989405 9.92314-1.68781Z" transform="matrix(1 0 0 1.00617 403.13 287.371)"/><path d="M5.20894-6.75123C5.99462-6.75123 7.97345-6.80943 9.37023-7.33323 11.5819-8.17713 11.7855-9.86494 11.7855-10.3888 11.7855-11.6691 10.6798-12.8332 8.75915-12.8332 5.70362-12.8332 1.30951-10.0687 1.30951-4.88883 1.30951-1.83331 3.05551 0.291002 5.70362 0.291002 9.66126 0.291002 12.1639-2.79362 12.1639-3.17191 12.1639-3.34651 11.9893-3.49202 11.8729-3.49202 11.7855-3.49202 11.7565-3.46293 11.4946-3.20102 9.63214-0.727503 6.86763-0.291002 5.76182-0.291002 4.10312-0.291002 3.23011-1.60051 3.23011-3.75393 3.23011-4.16132 3.23011-4.88883 3.66661-6.75123L5.20894-6.75123ZM3.81213-7.33323C5.06343-11.8147 7.82794-12.2512 8.75915-12.2512 10.0395-12.2512 10.9126-11.4946 10.9126-10.3888 10.9126-7.33323 6.25653-7.33323 5.03431-7.33323L3.81213-7.33323Z" transform="matrix(1 0 0 1.00617 419.285 287.371)"/><path d="M5.99462-8.52633C6.05282-8.70095 6.78032-10.1559 7.85705-11.0872 8.61364-11.7855 9.60306-12.2512 10.738-12.2512 11.9019-12.2512 12.3094-11.3782 12.3094-10.2141 12.3094-8.55544 11.1162-5.23802 10.5342-3.66661 10.2723-2.96822 10.1269-2.58991 10.1269-2.06611 10.1269-0.756603 11.029 0.291002 12.4258 0.291002 15.1321 0.291002 16.1506-3.98672 16.1506-4.16132 16.1506-4.30681 16.0342-4.42323 15.8596-4.42323 15.5977-4.42323 15.5686-4.33592 15.4231-3.84121 14.7538-1.45501 13.648-0.291002 12.5131-0.291002 12.2221-0.291002 11.7565-0.320102 11.7565-1.25131 11.7565-1.97881 12.0765-2.85182 12.2512-3.25922 12.8332-4.85972 14.0554-8.11893 14.0554-9.77765 14.0554-11.5237 13.0369-12.8332 10.8252-12.8332 8.23533-12.8332 6.86763-10.9998 6.34384-10.2723 6.25653-11.9311 5.06343-12.8332 3.78301-12.8332 2.85182-12.8332 2.21161-12.2803 1.71691-11.2909 1.19311-10.2432 0.785705-8.49724 0.785705-8.38084 0.785705-8.26444 0.902104-8.11893 1.1058-8.11893 1.33861-8.11893 1.36771-8.14805 1.54231-8.81735 2.00791-10.5924 2.53171-12.2512 3.69573-12.2512 4.36503-12.2512 4.59783-11.7855 4.59783-10.9126 4.59783-10.2723 4.30681-9.13744 4.10312-8.23533L3.28831-5.09251C3.17191-4.53963 2.85182-3.23011 2.70631-2.70631 2.5026-1.94971 2.18251-0.582002 2.18251-0.436503 2.18251-0.0291002 2.5026 0.291002 2.93911 0.291002 3.28831 0.291002 3.69573 0.116401 3.92852-0.320102 3.98672-0.465603 4.24861-1.48411 4.39412-2.06611L5.03431-4.68512 5.99462-8.52633Z" transform="matrix(1 0 0 1.00617 432.444 287.371)"/><path d="M11.3782-10.9416C10.8252-10.9416 10.5634-10.9416 10.1559-10.5924 9.98134-10.447 9.66126-10.0105 9.66126-9.54486 9.66126-8.96284 10.0977-8.61364 10.6506-8.61364 11.3491-8.61364 12.1348-9.19563 12.1348-10.3596 12.1348-11.7565 10.7962-12.8332 8.78824-12.8332 4.97611-12.8332 1.16401-8.67184 1.16401-4.53963 1.16401-2.00791 2.73542 0.291002 5.70362 0.291002 9.66126 0.291002 12.1639-2.79362 12.1639-3.17191 12.1639-3.34651 11.9893-3.49202 11.8729-3.49202 11.7855-3.49202 11.7565-3.46293 11.4946-3.20102 9.63214-0.727503 6.86763-0.291002 5.76182-0.291002 3.75393-0.291002 3.11371-2.03701 3.11371-3.49202 3.11371-4.51052 3.60841-7.33323 4.65603-9.31203 5.41262-10.6798 6.98403-12.2512 8.81735-12.2512 9.19563-12.2512 10.7962-12.193 11.3782-10.9416Z" transform="matrix(1 0 0 1.00617 449.388 287.371)"/><path d="M5.20894-6.75123C5.99462-6.75123 7.97345-6.80943 9.37023-7.33323 11.5819-8.17713 11.7855-9.86494 11.7855-10.3888 11.7855-11.6691 10.6798-12.8332 8.75915-12.8332 5.70362-12.8332 1.30951-10.0687 1.30951-4.88883 1.30951-1.83331 3.05551 0.291002 5.70362 0.291002 9.66126 0.291002 12.1639-2.79362 12.1639-3.17191 12.1639-3.34651 11.9893-3.49202 11.8729-3.49202 11.7855-3.49202 11.7565-3.46293 11.4946-3.20102 9.63214-0.727503 6.86763-0.291002 5.76182-0.291002 4.10312-0.291002 3.23011-1.60051 3.23011-3.75393 3.23011-4.16132 3.23011-4.88883 3.66661-6.75123L5.20894-6.75123ZM3.81213-7.33323C5.06343-11.8147 7.82794-12.2512 8.75915-12.2512 10.0395-12.2512 10.9126-11.4946 10.9126-10.3888 10.9126-7.33323 6.25653-7.33323 5.03431-7.33323L3.81213-7.33323Z" transform="matrix(1 0 0 1.00617 461.604 287.371)"/><path d="M9.45755 7.07134C9.45755 6.98403 9.45755 6.92583 8.96284 6.43113 6.05282 3.49202 4.42323-1.30951 4.42323-7.24594 4.42323-12.8914 5.79093-17.7511 9.16655-21.1849 9.45755-21.4468 9.45755-21.505 9.45755-21.5923 9.45755-21.7669 9.31203-21.8251 9.19563-21.8251 8.81735-21.8251 6.43113-19.7299 5.00523-16.8781 3.52113-13.939 2.85182-10.8252 2.85182-7.24594 2.85182-4.65603 3.25922-1.19311 4.77243 1.92061 6.48932 5.41262 8.87555 7.30414 9.19563 7.30414 9.31203 7.30414 9.45755 7.24594 9.45755 7.07134Z" transform="matrix(1 0 0 1.00617 474.761 287.371)"/><path d="M15.5395-17.8675C15.7723-18.7405 15.8305-19.0315 17.2564-19.0315 17.722-19.0315 18.013-19.0315 18.013-19.5553 18.013-19.8754 17.7511-19.8754 17.6347-19.8754 17.14-19.8754 16.5871-19.8172 16.0633-19.8172L14.4628-19.8172C13.2406-19.8172 11.9601-19.8754 10.738-19.8754 10.476-19.8754 10.1269-19.8754 10.1269-19.3516 10.1269-19.0606 10.3596-19.0606 10.3596-19.0315L11.0872-19.0315C13.4152-19.0315 13.4152-18.7987 13.4152-18.3622 13.4152-18.3331 13.4152-18.1294 13.2988-17.6638L9.95225-4.36503C9.19563-1.39681 7.24594 0.0291002 5.84913 0.0291002 4.85972 0.0291002 3.46293-0.436503 3.11371-1.97881 3.23011-1.94971 3.37562-1.92061 3.49202-1.92061 4.45232-1.92061 5.20894-2.76451 5.20894-3.60841 5.20894-4.07401 4.91791-4.68512 4.04492-4.68512 3.52113-4.68512 2.29891-4.39412 2.29891-2.5026 2.29891-0.669303 3.81213 0.611104 5.90733 0.611104 8.55544 0.611104 11.4073-1.39681 12.1057-4.16132L15.5395-17.8675Z" transform="matrix(1 0 0 1.00617 503.843 267.563)"/><path d="M540.286 227.222 588.992 227.222 588.992 228.386 540.286 228.386Z" transform="matrix(1 0 0 1.00617 -51.5755 50.841)"/><path d="M11.3782-10.9416C10.8252-10.9416 10.5634-10.9416 10.1559-10.5924 9.98134-10.447 9.66126-10.0105 9.66126-9.54486 9.66126-8.96284 10.0977-8.61364 10.6506-8.61364 11.3491-8.61364 12.1348-9.19563 12.1348-10.3596 12.1348-11.7565 10.7962-12.8332 8.78824-12.8332 4.97611-12.8332 1.16401-8.67184 1.16401-4.53963 1.16401-2.00791 2.73542 0.291002 5.70362 0.291002 9.66126 0.291002 12.1639-2.79362 12.1639-3.17191 12.1639-3.34651 11.9893-3.49202 11.8729-3.49202 11.7855-3.49202 11.7565-3.46293 11.4946-3.20102 9.63214-0.727503 6.86763-0.291002 5.76182-0.291002 3.75393-0.291002 3.11371-2.03701 3.11371-3.49202 3.11371-4.51052 3.60841-7.33323 4.65603-9.31203 5.41262-10.6798 6.98403-12.2512 8.81735-12.2512 9.19563-12.2512 10.7962-12.193 11.3782-10.9416Z" transform="matrix(1 0 0 1.00617 488.711 307.455)"/><path d="M5.99462-8.52633C6.05282-8.70095 6.78032-10.1559 7.85705-11.0872 8.61364-11.7855 9.60306-12.2512 10.738-12.2512 11.9019-12.2512 12.3094-11.3782 12.3094-10.2141 12.3094-10.0395 12.3094-9.45755 11.9601-8.08985L11.2326-5.09251C10.9998-4.21952 10.447-2.06611 10.3888-1.74601 10.2723-1.30951 10.0977-0.552902 10.0977-0.436503 10.0977-0.0291002 10.4178 0.291002 10.8544 0.291002 11.7273 0.291002 11.8729-0.378301 12.1348-1.42591L13.8808-8.38084C13.939-8.61364 15.4522-12.2512 18.6532-12.2512 19.8172-12.2512 20.2246-11.3782 20.2246-10.2141 20.2246-8.58453 19.0897-5.41262 18.4495-3.66661 18.1876-2.96822 18.0421-2.58991 18.0421-2.06611 18.0421-0.756603 18.9442 0.291002 20.341 0.291002 23.0473 0.291002 24.0658-3.98672 24.0658-4.16132 24.0658-4.30681 23.9494-4.42323 23.7748-4.42323 23.5129-4.42323 23.4838-4.33592 23.3383-3.84121 22.669-1.51321 21.5923-0.291002 20.4283-0.291002 20.1373-0.291002 19.6717-0.320102 19.6717-1.25131 19.6717-2.00791 20.0209-2.93911 20.1373-3.25922 20.6611-4.65603 21.9706-8.08985 21.9706-9.77765 21.9706-11.5237 20.9521-12.8332 18.7405-12.8332 16.7908-12.8332 15.2194-11.7273 14.0554-10.0105 13.9681-11.5819 13.0078-12.8332 10.8252-12.8332 8.23533-12.8332 6.86763-10.9998 6.34384-10.2723 6.25653-11.9311 5.06343-12.8332 3.78301-12.8332 2.93911-12.8332 2.26981-12.4258 1.71691-11.32 1.19311-10.2723 0.785705-8.49724 0.785705-8.38084 0.785705-8.26444 0.902104-8.11893 1.1058-8.11893 1.33861-8.11893 1.36771-8.14805 1.54231-8.81735 1.97881-10.5342 2.53171-12.2512 3.69573-12.2512 4.36503-12.2512 4.59783-11.7855 4.59783-10.9126 4.59783-10.2723 4.30681-9.13744 4.10312-8.23533L3.28831-5.09251C3.17191-4.53963 2.85182-3.23011 2.70631-2.70631 2.5026-1.94971 2.18251-0.582002 2.18251-0.436503 2.18251-0.0291002 2.5026 0.291002 2.93911 0.291002 3.28831 0.291002 3.69573 0.116401 3.92852-0.320102 3.98672-0.465603 4.24861-1.48411 4.39412-2.06611L5.03431-4.68512 5.99462-8.52633Z" transform="matrix(1 0 0 1.00617 500.927 307.455)"/><path d="M5.47082-3.95761C5.78122-4.24861 6.59604-4.88883 6.90643-5.16042 8.10925-6.26624 9.25383-7.33323 9.25383-9.09864 9.25383-11.4073 7.31383-12.901 4.88883-12.901 2.5608-12.901 1.0282-11.1356 1.0282-9.40903 1.0282-8.45844 1.78481-8.32264 2.05641-8.32264 2.4638-8.32264 3.06522-8.61364 3.06522-9.35083 3.06522-10.3596 2.09521-10.3596 1.86241-10.3596 2.42501-11.7759 3.72481-12.2609 4.67543-12.2609 6.47964-12.2609 7.41083-10.7282 7.41083-9.09864 7.41083-7.08103 5.99462-5.60662 3.70541-3.25922L1.26101-0.737203C1.0282-0.523802 1.0282-0.485003 1.0282 0L8.69124 0 9.25383-3.47262 8.65244-3.47262C8.59424-3.08462 8.43904-2.11461 8.20624-1.74601 8.08985-1.59081 6.61544-1.59081 6.30504-1.59081L2.85182-1.59081 5.47082-3.95761Z" transform="matrix(1 0 0 1.00617 525.758 298.996)"/><path d="M8.20624-7.24594C8.20624-9.45755 7.91525-13.066 6.28564-16.4416 4.56872-19.9336 2.18251-21.8251 1.86241-21.8251 1.74601-21.8251 1.60051-21.7669 1.60051-21.5923 1.60051-21.505 1.60051-21.4468 2.09521-20.9521 5.00523-18.013 6.63484-13.2115 6.63484-7.27503 6.63484-1.62961 5.26714 3.23011 1.89151 6.66392 1.60051 6.92583 1.60051 6.98403 1.60051 7.07134 1.60051 7.24594 1.74601 7.30414 1.86241 7.30414 2.24071 7.30414 4.62692 5.20894 6.05282 2.35711 7.53694-0.611104 8.20624-3.75393 8.20624-7.24594Z" transform="matrix(1 0 0 1.00617 540.326 287.371)"/><path d="M11.32-8.08985 5.49993-13.8808C5.15071-14.23 5.09251-14.2882 4.85972-14.2882 4.56872-14.2882 4.27772-14.0263 4.27772-13.7062 4.27772-13.5025 4.33592-13.4443 4.65603-13.1242L10.476-7.27503 4.65603-1.42591C4.33592-1.1058 4.27772-1.0476 4.27772-0.843904 4.27772-0.523802 4.56872-0.261902 4.85972-0.261902 5.09251-0.261902 5.15071-0.320102 5.49993-0.669303L11.2909-6.46024 17.3146-0.436503C17.3728-0.407401 17.5765-0.261902 17.7511-0.261902 18.1003-0.261902 18.3331-0.523802 18.3331-0.843904 18.3331-0.902104 18.3331-1.01851 18.2458-1.16401 18.2167-1.22221 13.5898-5.79093 12.1348-7.27503L17.4601-12.6004C17.6056-12.775 18.0421-13.1533 18.1876-13.3279 18.2167-13.3861 18.3331-13.5025 18.3331-13.7062 18.3331-14.0263 18.1003-14.2882 17.7511-14.2882 17.5183-14.2882 17.4019-14.1718 17.0818-13.8517L11.32-8.08985Z" transform="matrix(1 0 0 1.00617 557.832 287.371)"/><path d="M26.2774-16.6453C26.9468-17.7802 27.5869-18.8569 29.3329-19.0315 29.5948-19.0606 29.8567-19.0897 29.8567-19.5553 29.8567-19.8754 29.5948-19.8754 29.5074-19.8754 29.4493-19.8754 29.2455-19.8172 27.325-19.8172 26.4519-19.8172 25.5498-19.8754 24.7059-19.8754 24.5314-19.8754 24.1822-19.8754 24.1822-19.3225 24.1822-19.0606 24.415-19.0315 24.5896-19.0315 25.1716-19.0024 26.1029-18.8278 26.1029-17.9257 26.1029-17.5474 25.9865-17.3437 25.6954-16.849L17.7511-2.93911 16.7035-18.1003C16.7035-18.4495 17.0236-19.0024 18.6532-19.0315 19.0315-19.0315 19.3225-19.0315 19.3225-19.5844 19.3225-19.8754 19.0315-19.8754 18.886-19.8754 17.8675-19.8754 16.7908-19.8172 15.7432-19.8172L14.23-19.8172C13.7935-19.8172 13.2697-19.8754 12.8332-19.8754 12.6586-19.8754 12.3094-19.8754 12.3094-19.3225 12.3094-19.0315 12.5131-19.0315 13.0078-19.0315 14.3464-19.0315 14.3464-19.0024 14.4628-17.2273L14.5501-16.1797 7.01314-2.93911 5.93642-17.9548C5.93642-18.2749 5.93642-19.0024 7.91525-19.0315 8.23533-19.0315 8.55544-19.0315 8.55544-19.5553 8.55544-19.8754 8.29353-19.8754 8.11893-19.8754 7.10043-19.8754 6.02373-19.8172 4.97611-19.8172L3.46293-19.8172C3.02642-19.8172 2.5026-19.8754 2.06611-19.8754 1.89151-19.8754 1.54231-19.8754 1.54231-19.3225 1.54231-19.0315 1.77511-19.0315 2.18251-19.0315 3.55022-19.0315 3.57933-18.8569 3.63753-17.9257L4.91791-0.0582002C4.94703 0.436503 4.97611 0.611104 5.32534 0.611104 5.61633 0.611104 5.67453 0.494703 5.93642 0.0582002L14.6083-15.103 15.685-0.0582002C15.7141 0.436503 15.7432 0.611104 16.0924 0.611104 16.3834 0.611104 16.4707 0.465603 16.7035 0.0582002L26.2774-16.6453Z" transform="matrix(1 0 0 1.00617 586.849 287.371)"/><path d="M8.75915-3.46293C8.61364-2.96822 8.61364-2.91002 8.20624-2.35711 7.56603-1.54231 6.28564-0.291002 4.91791-0.291002 3.72481-0.291002 3.05551-1.36771 3.05551-3.08462 3.05551-4.68512 3.95761-7.94434 4.51052-9.16655 5.49993-11.2036 6.86763-12.2512 8.00253-12.2512 9.92314-12.2512 10.3014-9.86494 10.3014-9.63214 10.3014-9.60306 10.2141-9.22475 10.1851-9.16655L8.75915-3.46293ZM10.6216-10.9126C10.3014-11.6691 9.51574-12.8332 8.00253-12.8332 4.71423-12.8332 1.16401-8.58453 1.16401-4.27772 1.16401-1.39681 2.85182 0.291002 4.83063 0.291002 6.43113 0.291002 7.79885-0.960306 8.61364-1.92061 8.90464-0.203701 10.2723 0.291002 11.1454 0.291002 12.0184 0.291002 12.7168-0.232801 13.2406-1.28041 13.7062-2.26981 14.1136-4.04492 14.1136-4.16132 14.1136-4.30681 13.9972-4.42323 13.8226-4.42323 13.5607-4.42323 13.5316-4.27772 13.4152-3.84121 12.9786-2.12431 12.4258-0.291002 11.2326-0.291002 10.3888-0.291002 10.3305-1.0476 10.3305-1.62961 10.3305-2.29891 10.4178-2.61902 10.6798-3.75393 10.8834-4.48143 11.029-5.12162 11.2618-5.96553 12.3385-10.3305 12.6004-11.3782 12.6004-11.5527 12.6004-11.9601 12.2803-12.2803 11.8437-12.2803 10.9126-12.2803 10.6798-11.2618 10.6216-10.9126Z" transform="matrix(1 0 0 1.00617 617.606 287.371)"/><path d="M13.2988-10.8834C13.2988-12.7168 12.3676-12.8332 12.1348-12.8332 11.4364-12.8332 10.7962-12.1348 10.7962-11.5527 10.7962-11.2036 10.9998-10.9998 11.1162-10.8834 11.4073-10.6216 12.1639-9.83585 12.1639-8.32264 12.1639-7.10043 10.4178-0.291002 6.92583-0.291002 5.15071-0.291002 4.80152-1.77511 4.80152-2.85182 4.80152-4.30681 5.47082-6.34384 6.25653-8.43904 6.72212-9.63214 6.83852-9.92314 6.83852-10.5052 6.83852-11.7273 5.96553-12.8332 4.53963-12.8332 1.86241-12.8332 0.785705-8.61364 0.785705-8.38084 0.785705-8.26444 0.902104-8.11893 1.1058-8.11893 1.36771-8.11893 1.39681-8.23533 1.51321-8.64273 2.21161-11.1454 3.34651-12.2512 4.45232-12.2512 4.71423-12.2512 5.20894-12.2512 5.20894-11.2909 5.20894-10.5342 4.88883-9.69034 4.45232-8.58453 3.05551-4.85972 3.05551-3.95761 3.05551-3.25922 3.05551-2.61902 3.14282-1.42591 4.04492-0.611104 5.09251 0.291002 6.54752 0.291002 6.80943 0.291002 11.6401 0.291002 13.2988-9.22475 13.2988-10.8834Z" transform="matrix(1 0 0 1.00617 632.508 287.371)"/><path d="M5.20894-6.75123C5.99462-6.75123 7.97345-6.80943 9.37023-7.33323 11.5819-8.17713 11.7855-9.86494 11.7855-10.3888 11.7855-11.6691 10.6798-12.8332 8.75915-12.8332 5.70362-12.8332 1.30951-10.0687 1.30951-4.88883 1.30951-1.83331 3.05551 0.291002 5.70362 0.291002 9.66126 0.291002 12.1639-2.79362 12.1639-3.17191 12.1639-3.34651 11.9893-3.49202 11.8729-3.49202 11.7855-3.49202 11.7565-3.46293 11.4946-3.20102 9.63214-0.727503 6.86763-0.291002 5.76182-0.291002 4.10312-0.291002 3.23011-1.60051 3.23011-3.75393 3.23011-4.16132 3.23011-4.88883 3.66661-6.75123L5.20894-6.75123ZM3.81213-7.33323C5.06343-11.8147 7.82794-12.2512 8.75915-12.2512 10.0395-12.2512 10.9126-11.4946 10.9126-10.3888 10.9126-7.33323 6.25653-7.33323 5.03431-7.33323L3.81213-7.33323Z" transform="matrix(1 0 0 1.00617 647.276 287.371)"/><path d="M7.39143-19.468C7.42054-19.5844 7.47874-19.759 7.47874-19.9045 7.47874-20.1955 7.18774-20.1955 7.12954-20.1955 7.10043-20.1955 6.05282-20.1082 5.52902-20.05 5.03431-20.0209 4.59783-19.9627 4.07401-19.9336 3.37562-19.8754 3.17191-19.8463 3.17191-19.3225 3.17191-19.0315 3.46293-19.0315 3.75393-19.0315 5.23802-19.0315 5.23802-18.7696 5.23802-18.4786 5.23802-18.3622 5.23802-18.304 5.09251-17.7802L1.48411-3.34651C1.39681-3.02642 1.33861-2.79362 1.33861-2.32801 1.33861-0.873004 2.41531 0.291002 3.89941 0.291002 4.85972 0.291002 5.49993-0.349202 5.96553-1.25131 6.46024-2.21161 6.86763-4.04492 6.86763-4.16132 6.86763-4.30681 6.75123-4.42323 6.57664-4.42323 6.31473-4.42323 6.28564-4.27772 6.16924-3.84121 5.64542-1.83331 5.12162-0.291002 3.95761-0.291002 3.08462-0.291002 3.08462-1.22221 3.08462-1.62961 3.08462-1.74601 3.08462-2.35711 3.28831-3.17191L7.39143-19.468Z" transform="matrix(1 0 0 1.00617 660.432 287.371)"/><path d="M5.20894-6.75123C5.99462-6.75123 7.97345-6.80943 9.37023-7.33323 11.5819-8.17713 11.7855-9.86494 11.7855-10.3888 11.7855-11.6691 10.6798-12.8332 8.75915-12.8332 5.70362-12.8332 1.30951-10.0687 1.30951-4.88883 1.30951-1.83331 3.05551 0.291002 5.70362 0.291002 9.66126 0.291002 12.1639-2.79362 12.1639-3.17191 12.1639-3.34651 11.9893-3.49202 11.8729-3.49202 11.7855-3.49202 11.7565-3.46293 11.4946-3.20102 9.63214-0.727503 6.86763-0.291002 5.76182-0.291002 4.10312-0.291002 3.23011-1.60051 3.23011-3.75393 3.23011-4.16132 3.23011-4.88883 3.66661-6.75123L5.20894-6.75123ZM3.81213-7.33323C5.06343-11.8147 7.82794-12.2512 8.75915-12.2512 10.0395-12.2512 10.9126-11.4946 10.9126-10.3888 10.9126-7.33323 6.25653-7.33323 5.03431-7.33323L3.81213-7.33323Z" transform="matrix(1 0 0 1.00617 669.528 287.371)"/><path d="M5.99462-8.52633C6.05282-8.70095 6.78032-10.1559 7.85705-11.0872 8.61364-11.7855 9.60306-12.2512 10.738-12.2512 11.9019-12.2512 12.3094-11.3782 12.3094-10.2141 12.3094-8.55544 11.1162-5.23802 10.5342-3.66661 10.2723-2.96822 10.1269-2.58991 10.1269-2.06611 10.1269-0.756603 11.029 0.291002 12.4258 0.291002 15.1321 0.291002 16.1506-3.98672 16.1506-4.16132 16.1506-4.30681 16.0342-4.42323 15.8596-4.42323 15.5977-4.42323 15.5686-4.33592 15.4231-3.84121 14.7538-1.45501 13.648-0.291002 12.5131-0.291002 12.2221-0.291002 11.7565-0.320102 11.7565-1.25131 11.7565-1.97881 12.0765-2.85182 12.2512-3.25922 12.8332-4.85972 14.0554-8.11893 14.0554-9.77765 14.0554-11.5237 13.0369-12.8332 10.8252-12.8332 8.23533-12.8332 6.86763-10.9998 6.34384-10.2723 6.25653-11.9311 5.06343-12.8332 3.78301-12.8332 2.85182-12.8332 2.21161-12.2803 1.71691-11.2909 1.19311-10.2432 0.785705-8.49724 0.785705-8.38084 0.785705-8.26444 0.902104-8.11893 1.1058-8.11893 1.33861-8.11893 1.36771-8.14805 1.54231-8.81735 2.00791-10.5924 2.53171-12.2512 3.69573-12.2512 4.36503-12.2512 4.59783-11.7855 4.59783-10.9126 4.59783-10.2723 4.30681-9.13744 4.10312-8.23533L3.28831-5.09251C3.17191-4.53963 2.85182-3.23011 2.70631-2.70631 2.5026-1.94971 2.18251-0.582002 2.18251-0.436503 2.18251-0.0291002 2.5026 0.291002 2.93911 0.291002 3.28831 0.291002 3.69573 0.116401 3.92852-0.320102 3.98672-0.465603 4.24861-1.48411 4.39412-2.06611L5.03431-4.68512 5.99462-8.52633Z" transform="matrix(1 0 0 1.00617 682.685 287.371)"/><path d="M9.83585-3.69573C9.71945-3.23011 9.66126-3.11371 9.28295-2.67722 8.08985-1.13491 6.86763-0.582002 5.96553-0.582002 5.00523-0.582002 4.10312-1.33861 4.10312-3.34651 4.10312-4.88883 4.97611-8.14805 5.61633-9.45755 6.46024-11.0872 7.76974-12.2512 8.99195-12.2512 10.9126-12.2512 11.2909-9.86494 11.2909-9.69034L11.2036-9.28295 9.83585-3.69573ZM11.6401-10.9126C11.2618-11.7565 10.447-12.8332 8.99195-12.8332 5.82002-12.8332 2.21161-8.84644 2.21161-4.51052 2.21161-1.48411 4.04492 0 5.90733 0 7.44963 0 8.81735-1.22221 9.34115-1.80421L8.70095 0.814804C8.29353 2.41531 8.11893 3.14282 7.07134 4.16132 5.87822 5.35442 4.77243 5.35442 4.13221 5.35442 3.25922 5.35442 2.53171 5.29622 1.80421 5.06343 2.73542 4.80152 2.96822 3.98672 2.96822 3.66661 2.96822 3.20102 2.61902 2.73542 1.97881 2.73542 1.28041 2.73542 0.523802 3.31742 0.523802 4.27772 0.523802 5.47082 1.71691 5.93642 4.19041 5.93642 7.94434 5.93642 9.89405 3.52113 10.2723 1.94971L13.5025-11.0872C13.5898-11.4364 13.5898-11.4946 13.5898-11.5527 13.5898-11.9601 13.2697-12.2803 12.8332-12.2803 12.1348-12.2803 11.7273-11.6983 11.6401-10.9126Z" transform="matrix(1 0 0 1.00617 699.631 287.371)"/><path d="M5.84913-11.6983 8.52633-11.6983C9.07924-11.6983 9.37023-11.6983 9.37023-12.2221 9.37023-12.5422 9.19563-12.5422 8.61364-12.5422L6.05282-12.5422 7.12954-16.7908C7.24594-17.1982 7.24594-17.2564 7.24594-17.4601 7.24594-17.9257 6.86763-18.1876 6.48932-18.1876 6.25653-18.1876 5.58722-18.1003 5.35442-17.1691L4.21952-12.5422 1.48411-12.5422C0.902104-12.5422 0.640204-12.5422 0.640204-11.9893 0.640204-11.6983 0.843904-11.6983 1.39681-11.6983L3.98672-11.6983 2.06611-4.01581C1.83331-2.99731 1.74601-2.70631 1.74601-2.32801 1.74601-0.960306 2.70631 0.291002 4.33592 0.291002 7.27503 0.291002 8.84644-3.95761 8.84644-4.16132 8.84644-4.33592 8.73004-4.42323 8.55544-4.42323 8.49724-4.42323 8.38084-4.42323 8.32264-4.30681 8.29353-4.27772 8.26444-4.24861 8.06073-3.78301 7.44963-2.32801 6.11104-0.291002 4.42323-0.291002 3.55022-0.291002 3.49202-1.01851 3.49202-1.65871 3.49202-1.68781 3.49202-2.24071 3.57933-2.58991L5.84913-11.6983Z" transform="matrix(1 0 0 1.00617 714.267 287.371)"/><path d="M8.17713-19.468C8.20624-19.5844 8.26444-19.759 8.26444-19.9045 8.26444-20.1955 7.97345-20.1955 7.91525-20.1955 7.88614-20.1955 6.46024-20.0791 6.31473-20.05 5.82002-20.0209 5.38353-19.9627 4.85972-19.9336 4.13221-19.8754 3.92852-19.8463 3.92852-19.3225 3.92852-19.0315 4.16132-19.0315 4.56872-19.0315 5.99462-19.0315 6.02373-18.7696 6.02373-18.4786 6.02373-18.304 5.96553-18.0712 5.93642-17.9839L1.71691-1.13491C1.60051-0.698403 1.60051-0.640204 1.60051-0.465603 1.60051 0.174601 2.09521 0.291002 2.38621 0.291002 2.88091 0.291002 3.25922-0.0873004 3.4047-0.407401L4.71423-5.67453C4.85972-6.31473 5.03431-6.92583 5.17982-7.56603 5.49993-8.78824 5.49993-8.81735 6.05282-9.66126 6.6057-10.5052 7.91525-12.2512 10.1559-12.2512 11.32-12.2512 11.7273-11.3782 11.7273-10.2141 11.7273-8.58453 10.5924-5.41262 9.95225-3.66661 9.69034-2.96822 9.54486-2.58991 9.54486-2.06611 9.54486-0.756603 10.447 0.291002 11.8437 0.291002 14.5501 0.291002 15.5686-3.98672 15.5686-4.16132 15.5686-4.30681 15.4522-4.42323 15.2776-4.42323 15.0157-4.42323 14.9866-4.33592 14.8411-3.84121 14.1718-1.51321 13.0951-0.291002 11.9311-0.291002 11.6401-0.291002 11.1744-0.320102 11.1744-1.25131 11.1744-2.00791 11.5237-2.93911 11.6401-3.25922 12.1639-4.65603 13.4734-8.08985 13.4734-9.77765 13.4734-11.5237 12.4549-12.8332 10.2432-12.8332 8.58453-12.8332 7.12954-12.0475 5.93642-10.5342L8.17713-19.468Z" transform="matrix(1 0 0 1.00617 724.517 287.371)"/><path d="M9.45755 7.07134C9.45755 6.98403 9.45755 6.92583 8.96284 6.43113 6.05282 3.49202 4.42323-1.30951 4.42323-7.24594 4.42323-12.8914 5.79093-17.7511 9.16655-21.1849 9.45755-21.4468 9.45755-21.505 9.45755-21.5923 9.45755-21.7669 9.31203-21.8251 9.19563-21.8251 8.81735-21.8251 6.43113-19.7299 5.00523-16.8781 3.52113-13.939 2.85182-10.8252 2.85182-7.24594 2.85182-4.65603 3.25922-1.19311 4.77243 1.92061 6.48932 5.41262 8.87555 7.30414 9.19563 7.30414 9.31203 7.30414 9.45755 7.24594 9.45755 7.07134Z" transform="matrix(1 0 0 1.00617 740.86 287.371)"/><path d="M5.99462-8.52633C6.05282-8.70095 6.78032-10.1559 7.85705-11.0872 8.61364-11.7855 9.60306-12.2512 10.738-12.2512 11.9019-12.2512 12.3094-11.3782 12.3094-10.2141 12.3094-8.55544 11.1162-5.23802 10.5342-3.66661 10.2723-2.96822 10.1269-2.58991 10.1269-2.06611 10.1269-0.756603 11.029 0.291002 12.4258 0.291002 15.1321 0.291002 16.1506-3.98672 16.1506-4.16132 16.1506-4.30681 16.0342-4.42323 15.8596-4.42323 15.5977-4.42323 15.5686-4.33592 15.4231-3.84121 14.7538-1.45501 13.648-0.291002 12.5131-0.291002 12.2221-0.291002 11.7565-0.320102 11.7565-1.25131 11.7565-1.97881 12.0765-2.85182 12.2512-3.25922 12.8332-4.85972 14.0554-8.11893 14.0554-9.77765 14.0554-11.5237 13.0369-12.8332 10.8252-12.8332 8.23533-12.8332 6.86763-10.9998 6.34384-10.2723 6.25653-11.9311 5.06343-12.8332 3.78301-12.8332 2.85182-12.8332 2.21161-12.2803 1.71691-11.2909 1.19311-10.2432 0.785705-8.49724 0.785705-8.38084 0.785705-8.26444 0.902104-8.11893 1.1058-8.11893 1.33861-8.11893 1.36771-8.14805 1.54231-8.81735 2.00791-10.5924 2.53171-12.2512 3.69573-12.2512 4.36503-12.2512 4.59783-11.7855 4.59783-10.9126 4.59783-10.2723 4.30681-9.13744 4.10312-8.23533L3.28831-5.09251C3.17191-4.53963 2.85182-3.23011 2.70631-2.70631 2.5026-1.94971 2.18251-0.582002 2.18251-0.436503 2.18251-0.0291002 2.5026 0.291002 2.93911 0.291002 3.28831 0.291002 3.69573 0.116401 3.92852-0.320102 3.98672-0.465603 4.24861-1.48411 4.39412-2.06611L5.03431-4.68512 5.99462-8.52633Z" transform="matrix(1 0 0 1.00617 751.898 287.371)"/><path d="M5.99462-8.52633C6.05282-8.70095 6.78032-10.1559 7.85705-11.0872 8.61364-11.7855 9.60306-12.2512 10.738-12.2512 11.9019-12.2512 12.3094-11.3782 12.3094-10.2141 12.3094-10.0395 12.3094-9.45755 11.9601-8.08985L11.2326-5.09251C10.9998-4.21952 10.447-2.06611 10.3888-1.74601 10.2723-1.30951 10.0977-0.552902 10.0977-0.436503 10.0977-0.0291002 10.4178 0.291002 10.8544 0.291002 11.7273 0.291002 11.8729-0.378301 12.1348-1.42591L13.8808-8.38084C13.939-8.61364 15.4522-12.2512 18.6532-12.2512 19.8172-12.2512 20.2246-11.3782 20.2246-10.2141 20.2246-8.58453 19.0897-5.41262 18.4495-3.66661 18.1876-2.96822 18.0421-2.58991 18.0421-2.06611 18.0421-0.756603 18.9442 0.291002 20.341 0.291002 23.0473 0.291002 24.0658-3.98672 24.0658-4.16132 24.0658-4.30681 23.9494-4.42323 23.7748-4.42323 23.5129-4.42323 23.4838-4.33592 23.3383-3.84121 22.669-1.51321 21.5923-0.291002 20.4283-0.291002 20.1373-0.291002 19.6717-0.320102 19.6717-1.25131 19.6717-2.00791 20.0209-2.93911 20.1373-3.25922 20.6611-4.65603 21.9706-8.08985 21.9706-9.77765 21.9706-11.5237 20.9521-12.8332 18.7405-12.8332 16.7908-12.8332 15.2194-11.7273 14.0554-10.0105 13.9681-11.5819 13.0078-12.8332 10.8252-12.8332 8.23533-12.8332 6.86763-10.9998 6.34384-10.2723 6.25653-11.9311 5.06343-12.8332 3.78301-12.8332 2.93911-12.8332 2.26981-12.4258 1.71691-11.32 1.19311-10.2723 0.785705-8.49724 0.785705-8.38084 0.785705-8.26444 0.902104-8.11893 1.1058-8.11893 1.33861-8.11893 1.36771-8.14805 1.54231-8.81735 1.97881-10.5342 2.53171-12.2512 3.69573-12.2512 4.36503-12.2512 4.59783-11.7855 4.59783-10.9126 4.59783-10.2723 4.30681-9.13744 4.10312-8.23533L3.28831-5.09251C3.17191-4.53963 2.85182-3.23011 2.70631-2.70631 2.5026-1.94971 2.18251-0.582002 2.18251-0.436503 2.18251-0.0291002 2.5026 0.291002 2.93911 0.291002 3.28831 0.291002 3.69573 0.116401 3.92852-0.320102 3.98672-0.465603 4.24861-1.48411 4.39412-2.06611L5.03431-4.68512 5.99462-8.52633Z" transform="matrix(1 0 0 1.00617 768.842 287.371)"/><path d="M8.20624-7.24594C8.20624-9.45755 7.91525-13.066 6.28564-16.4416 4.56872-19.9336 2.18251-21.8251 1.86241-21.8251 1.74601-21.8251 1.60051-21.7669 1.60051-21.5923 1.60051-21.505 1.60051-21.4468 2.09521-20.9521 5.00523-18.013 6.63484-13.2115 6.63484-7.27503 6.63484-1.62961 5.26714 3.23011 1.89151 6.66392 1.60051 6.92583 1.60051 6.98403 1.60051 7.07134 1.60051 7.24594 1.74601 7.30414 1.86241 7.30414 2.24071 7.30414 4.62692 5.20894 6.05282 2.35711 7.53694-0.611104 8.20624-3.75393 8.20624-7.24594Z" transform="matrix(1 0 0 1.00617 793.672 287.371)"/><path d="M11.32-8.08985 5.49993-13.8808C5.15071-14.23 5.09251-14.2882 4.85972-14.2882 4.56872-14.2882 4.27772-14.0263 4.27772-13.7062 4.27772-13.5025 4.33592-13.4443 4.65603-13.1242L10.476-7.27503 4.65603-1.42591C4.33592-1.1058 4.27772-1.0476 4.27772-0.843904 4.27772-0.523802 4.56872-0.261902 4.85972-0.261902 5.09251-0.261902 5.15071-0.320102 5.49993-0.669303L11.2909-6.46024 17.3146-0.436503C17.3728-0.407401 17.5765-0.261902 17.7511-0.261902 18.1003-0.261902 18.3331-0.523802 18.3331-0.843904 18.3331-0.902104 18.3331-1.01851 18.2458-1.16401 18.2167-1.22221 13.5898-5.79093 12.1348-7.27503L17.4601-12.6004C17.6056-12.775 18.0421-13.1533 18.1876-13.3279 18.2167-13.3861 18.3331-13.5025 18.3331-13.7062 18.3331-14.0263 18.1003-14.2882 17.7511-14.2882 17.5183-14.2882 17.4019-14.1718 17.0818-13.8517L11.32-8.08985Z" transform="matrix(1 0 0 1.00617 811.178 287.371)"/><path d="M9.45755 7.07134C9.45755 6.98403 9.45755 6.92583 8.96284 6.43113 6.05282 3.49202 4.42323-1.30951 4.42323-7.24594 4.42323-12.8914 5.79093-17.7511 9.16655-21.1849 9.45755-21.4468 9.45755-21.505 9.45755-21.5923 9.45755-21.7669 9.31203-21.8251 9.19563-21.8251 8.81735-21.8251 6.43113-19.7299 5.00523-16.8781 3.52113-13.939 2.85182-10.8252 2.85182-7.24594 2.85182-4.65603 3.25922-1.19311 4.77243 1.92061 6.48932 5.41262 8.87555 7.30414 9.19563 7.30414 9.31203 7.30414 9.45755 7.24594 9.45755 7.07134Z" transform="matrix(1 0 0 1.00617 947.849 267.563)"/><path d="M8.38084-18.6532C8.38084-19.3225 8.38084-19.3516 7.79885-19.3516 7.10043-18.5659 5.64542-17.4892 2.64811-17.4892L2.64811-16.6453C3.31742-16.6453 4.77243-16.6453 6.37293-17.4019L6.37293-2.24071C6.37293-1.19311 6.28564-0.843904 3.72481-0.843904L2.82271-0.843904 2.82271 0C3.60841-0.0582002 6.43113-0.0582002 7.39143-0.0582002 8.35173-0.0582002 11.1454-0.0582002 11.9311 0L11.9311-0.843904 11.029-0.843904C8.46813-0.843904 8.38084-1.19311 8.38084-2.24071L8.38084-18.6532Z" transform="matrix(1 0 0 1.00617 958.887 267.563)"/><path d="M19.177-6.69303C19.6717-6.69303 20.1955-6.69303 20.1955-7.27503 20.1955-7.85702 19.6717-7.85705 19.177-7.85705L3.43382-7.85705C2.93911-7.85705 2.41531-7.85705 2.41531-7.27503 2.41531-6.69301 2.93911-6.69303 3.43382-6.69303L19.177-6.69303Z" transform="matrix(1 0 0 1.00617 979.548 267.563)"/><path d="M8.38084-18.6532C8.38084-19.3225 8.38084-19.3516 7.79885-19.3516 7.10043-18.5659 5.64542-17.4892 2.64811-17.4892L2.64811-16.6453C3.31742-16.6453 4.77243-16.6453 6.37293-17.4019L6.37293-2.24071C6.37293-1.19311 6.28564-0.843904 3.72481-0.843904L2.82271-0.843904 2.82271 0C3.60841-0.0582002 6.43113-0.0582002 7.39143-0.0582002 8.35173-0.0582002 11.1454-0.0582002 11.9311 0L11.9311-0.843904 11.029-0.843904C8.46813-0.843904 8.38084-1.19311 8.38084-2.24071L8.38084-18.6532Z" transform="matrix(1 0 0 1.00617 1008.56 267.563)"/><path d="M13.0369-9.31203C13.0369-11.7273 12.8914-14.0845 11.8437-16.2961 10.6506-18.7114 8.55544-19.3516 7.12954-19.3516 5.44173-19.3516 3.37562-18.5077 2.29891-16.0924 1.48411-14.2591 1.19311-12.4549 1.19311-9.31203 1.19311-6.48932 1.39681-4.36503 2.4444-2.29891 3.57933-0.0873004 5.58722 0.611104 7.10043 0.611104 9.63214 0.611104 11.0872-0.902104 11.9311-2.58991 12.9786-4.77243 13.0369-7.62423 13.0369-9.31203ZM7.10043 0.0291002C6.16924 0.0291002 4.27772-0.494703 3.72481-3.66661 3.4047-5.41262 3.4047-7.62423 3.4047-9.66126 3.4047-12.0475 3.4047-14.2009 3.87032-15.9178 4.36503-17.8675 5.84913-18.7696 7.10043-18.7696 8.20624-18.7696 9.89405-18.1003 10.447-15.5977 10.8252-13.939 10.8252-11.6401 10.8252-9.66126 10.8252-7.71154 10.8252-5.49993 10.5052-3.72481 9.95225-0.523802 8.11893 0.0291002 7.10043 0.0291002Z" transform="matrix(1 0 0 1.00617 1022.76 267.563)"/><path d="M13.5607-4.40383C13.8711-4.40383 14.2979-4.40383 14.2979-4.85003 14.2979-5.29622 13.8711-5.29622 13.5607-5.29622L2.4444-5.29622C2.13401-5.29622 1.70721-5.29622 1.70721-4.85003 1.70721-4.40383 2.13401-4.40383 2.4444-4.40383L13.5607-4.40383Z" transform="matrix(1 0 0 1.00617 1036.95 256.937)"/><path d="M15.1515-8.34204C15.1515-11.5237 12.9398-13.6577 9.83585-13.6577 5.31562-13.6577 0.989405-9.17624 0.989405-4.85003 0.989405-1.86241 3.08462 0.407401 6.34384 0.407401 10.6894 0.407401 15.1515-3.76361 15.1515-8.34204ZM6.49904-0.232801C4.52023-0.232801 2.91002-1.64901 2.91002-4.42323 2.91002-4.73363 2.91002-7.97345 5.14103-10.7282 5.85882-11.6013 7.60483-13.0563 9.70006-13.0563 11.6401-13.0563 13.3473-11.7177 13.3473-9.02104 13.3473-7.95405 12.9398-4.92763 10.9416-2.5608 9.81645-1.22221 8.14805-0.232801 6.49904-0.232801Z" transform="matrix(1 0 0 1.00617 1052.92 256.937)"/><path d="M3.23982-1.53261C3.06522-0.795405 3.02642-0.640204 1.59081-0.640204 1.22221-0.640204 0.989405-0.640204 0.989405-0.271602 0.989405 0 1.24161 0 1.57141 0L8.24504 0C12.3385 0 16.4125-3.91881 16.4125-8.24504 16.4125-11.2132 14.4337-13.2503 11.5431-13.2503L4.75303-13.2503C4.40383-13.2503 4.15161-13.2503 4.15161-12.8816 4.15161-12.6101 4.38443-12.6101 4.71423-12.6101 5.35442-12.6101 5.91702-12.6101 5.91702-12.2997 5.91702-12.2221 5.89762-12.2027 5.83942-11.9505L3.23982-1.53261ZM7.52723-11.8923C7.70183-12.5519 7.72123-12.6101 8.51664-12.6101L10.864-12.6101C13.1339-12.6101 14.6665-11.3103 14.6665-8.94344 14.6665-8.30324 14.3949-5.14103 12.7071-2.96822 11.8535-1.88181 10.1851-0.640204 7.89585-0.640204L5.00523-0.640204C4.83063-0.679003 4.77243-0.679003 4.77243-0.814804 4.77243-0.970005 4.81123-1.12521 4.85003-1.24161L7.52723-11.8923Z" transform="matrix(1 0 0 1.00617 1069.08 256.937)"/><path d="M8.20624-7.24594C8.20624-9.45755 7.91525-13.066 6.28564-16.4416 4.56872-19.9336 2.18251-21.8251 1.86241-21.8251 1.74601-21.8251 1.60051-21.7669 1.60051-21.5923 1.60051-21.505 1.60051-21.4468 2.09521-20.9521 5.00523-18.013 6.63484-13.2115 6.63484-7.27503 6.63484-1.62961 5.26714 3.23011 1.89151 6.66392 1.60051 6.92583 1.60051 6.98403 1.60051 7.07134 1.60051 7.24594 1.74601 7.30414 1.86241 7.30414 2.24071 7.30414 4.62692 5.20894 6.05282 2.35711 7.53694-0.611104 8.20624-3.75393 8.20624-7.24594Z" transform="matrix(1 0 0 1.00617 1087.89 267.563)"/><path d="M894.68 227.222 1255.57 227.222 1255.57 228.386 894.68 228.386Z" transform="matrix(1 0 0 1.00617 -51.5755 50.841)"/><path d="M8.17713-19.468C8.20624-19.5844 8.26444-19.759 8.26444-19.9045 8.26444-20.1955 7.97345-20.1955 7.91525-20.1955 7.88614-20.1955 6.46024-20.0791 6.31473-20.05 5.82002-20.0209 5.38353-19.9627 4.85972-19.9336 4.13221-19.8754 3.92852-19.8463 3.92852-19.3225 3.92852-19.0315 4.16132-19.0315 4.56872-19.0315 5.99462-19.0315 6.02373-18.7696 6.02373-18.4786 6.02373-18.304 5.96553-18.0712 5.93642-17.9839L1.71691-1.13491C1.60051-0.698403 1.60051-0.640204 1.60051-0.465603 1.60051 0.174601 2.09521 0.291002 2.38621 0.291002 2.88091 0.291002 3.25922-0.0873004 3.4047-0.407401L4.71423-5.67453C4.85972-6.31473 5.03431-6.92583 5.17982-7.56603 5.49993-8.78824 5.49993-8.81735 6.05282-9.66126 6.6057-10.5052 7.91525-12.2512 10.1559-12.2512 11.32-12.2512 11.7273-11.3782 11.7273-10.2141 11.7273-8.58453 10.5924-5.41262 9.95225-3.66661 9.69034-2.96822 9.54486-2.58991 9.54486-2.06611 9.54486-0.756603 10.447 0.291002 11.8437 0.291002 14.5501 0.291002 15.5686-3.98672 15.5686-4.16132 15.5686-4.30681 15.4522-4.42323 15.2776-4.42323 15.0157-4.42323 14.9866-4.33592 14.8411-3.84121 14.1718-1.51321 13.0951-0.291002 11.9311-0.291002 11.6401-0.291002 11.1744-0.320102 11.1744-1.25131 11.1744-2.00791 11.5237-2.93911 11.6401-3.25922 12.1639-4.65603 13.4734-8.08985 13.4734-9.77765 13.4734-11.5237 12.4549-12.8332 10.2432-12.8332 8.58453-12.8332 7.12954-12.0475 5.93642-10.5342L8.17713-19.468Z" transform="matrix(1 0 0 1.00617 843.104 307.455)"/><path d="M11.32-8.08985 5.49993-13.8808C5.15071-14.23 5.09251-14.2882 4.85972-14.2882 4.56872-14.2882 4.27772-14.0263 4.27772-13.7062 4.27772-13.5025 4.33592-13.4443 4.65603-13.1242L10.476-7.27503 4.65603-1.42591C4.33592-1.1058 4.27772-1.0476 4.27772-0.843904 4.27772-0.523802 4.56872-0.261902 4.85972-0.261902 5.09251-0.261902 5.15071-0.320102 5.49993-0.669303L11.2909-6.46024 17.3146-0.436503C17.3728-0.407401 17.5765-0.261902 17.7511-0.261902 18.1003-0.261902 18.3331-0.523802 18.3331-0.843904 18.3331-0.902104 18.3331-1.01851 18.2458-1.16401 18.2167-1.22221 13.5898-5.79093 12.1348-7.27503L17.4601-12.6004C17.6056-12.775 18.0421-13.1533 18.1876-13.3279 18.2167-13.3861 18.3331-13.5025 18.3331-13.7062 18.3331-14.0263 18.1003-14.2882 17.7511-14.2882 17.5183-14.2882 17.4019-14.1718 17.0818-13.8517L11.32-8.08985Z" transform="matrix(1 0 0 1.00617 865.912 307.455)"/><path d="M11.3782-10.9416C10.8252-10.9416 10.5634-10.9416 10.1559-10.5924 9.98134-10.447 9.66126-10.0105 9.66126-9.54486 9.66126-8.96284 10.0977-8.61364 10.6506-8.61364 11.3491-8.61364 12.1348-9.19563 12.1348-10.3596 12.1348-11.7565 10.7962-12.8332 8.78824-12.8332 4.97611-12.8332 1.16401-8.67184 1.16401-4.53963 1.16401-2.00791 2.73542 0.291002 5.70362 0.291002 9.66126 0.291002 12.1639-2.79362 12.1639-3.17191 12.1639-3.34651 11.9893-3.49202 11.8729-3.49202 11.7855-3.49202 11.7565-3.46293 11.4946-3.20102 9.63214-0.727503 6.86763-0.291002 5.76182-0.291002 3.75393-0.291002 3.11371-2.03701 3.11371-3.49202 3.11371-4.51052 3.60841-7.33323 4.65603-9.31203 5.41262-10.6798 6.98403-12.2512 8.81735-12.2512 9.19563-12.2512 10.7962-12.193 11.3782-10.9416Z" transform="matrix(1 0 0 1.00617 894.929 307.455)"/><path d="M11.32-8.08985 5.49993-13.8808C5.15071-14.23 5.09251-14.2882 4.85972-14.2882 4.56872-14.2882 4.27772-14.0263 4.27772-13.7062 4.27772-13.5025 4.33592-13.4443 4.65603-13.1242L10.476-7.27503 4.65603-1.42591C4.33592-1.1058 4.27772-1.0476 4.27772-0.843904 4.27772-0.523802 4.56872-0.261902 4.85972-0.261902 5.09251-0.261902 5.15071-0.320102 5.49993-0.669303L11.2909-6.46024 17.3146-0.436503C17.3728-0.407401 17.5765-0.261902 17.7511-0.261902 18.1003-0.261902 18.3331-0.523802 18.3331-0.843904 18.3331-0.902104 18.3331-1.01851 18.2458-1.16401 18.2167-1.22221 13.5898-5.79093 12.1348-7.27503L17.4601-12.6004C17.6056-12.775 18.0421-13.1533 18.1876-13.3279 18.2167-13.3861 18.3331-13.5025 18.3331-13.7062 18.3331-14.0263 18.1003-14.2882 17.7511-14.2882 17.5183-14.2882 17.4019-14.1718 17.0818-13.8517L11.32-8.08985Z" transform="matrix(1 0 0 1.00617 918.462 307.455)"/><path d="M12.9786-11.6983C13.5607-11.6983 13.7935-11.6983 13.7935-12.2512 13.7935-12.5422 13.5607-12.5422 13.0369-12.5422L10.6798-12.5422C11.2326-15.5395 11.6401-17.6056 11.8729-18.5368 12.0475-19.2352 12.6586-19.9045 13.4152-19.9045 14.0263-19.9045 14.6374-19.6426 14.9284-19.3807 13.7935-19.2643 13.4443-18.4204 13.4443-17.9257 13.4443-17.3437 13.8808-16.9945 14.4337-16.9945 15.0157-16.9945 15.8887-17.4892 15.8887-18.595 15.8887-19.8172 14.6665-20.4865 13.3861-20.4865 12.1348-20.4865 10.9126-19.5553 10.3305-18.4204 9.80674-17.4019 9.51574-16.3543 8.84644-12.5422L6.89672-12.5422C6.34384-12.5422 6.05282-12.5422 6.05282-12.0183 6.05282-11.6983 6.22744-11.6983 6.80943-11.6983L8.67184-11.6983C8.14805-8.99195 6.95494-2.41531 6.28564 0.698403 5.79093 3.23011 5.35442 5.35442 3.89941 5.35442 3.81213 5.35442 2.96822 5.35442 2.4444 4.80152 3.92852 4.68512 3.92852 3.4047 3.92852 3.37562 3.92852 2.79362 3.49202 2.4444 2.93911 2.4444 2.35711 2.4444 1.48411 2.93911 1.48411 4.04492 1.48411 5.29622 2.76451 5.93642 3.89941 5.93642 6.86763 5.93642 8.08985 0.611104 8.40993-0.843904 8.93375-3.08462 10.3596-10.8252 10.5052-11.6983L12.9786-11.6983Z" transform="matrix(1 0 0 1.00617 947.479 307.455)"/><path d="M8.23533-4.16132C8.23533-4.30681 8.11893-4.42323 7.94434-4.42323 7.68243-4.42323 7.65334-4.33592 7.50783-3.84121 6.75123-1.19311 5.55813-0.291002 4.59783-0.291002 4.24861-0.291002 3.84121-0.378301 3.84121-1.25131 3.84121-2.03701 4.19041-2.91002 4.51052-3.78301L6.54752-9.19563C6.63484-9.42843 6.83852-9.95225 6.83852-10.5052 6.83852-11.7273 5.96553-12.8332 4.53963-12.8332 1.86241-12.8332 0.785705-8.61364 0.785705-8.38084 0.785705-8.26444 0.902104-8.11893 1.1058-8.11893 1.36771-8.11893 1.39681-8.23533 1.51321-8.64273 2.21161-11.0872 3.31742-12.2512 4.45232-12.2512 4.71423-12.2512 5.20894-12.2221 5.20894-11.2909 5.20894-10.5342 4.83063-9.57394 4.59783-8.93375L2.5608-3.52113C2.38621-3.05551 2.21161-2.58991 2.21161-2.06611 2.21161-0.756603 3.11371 0.291002 4.51052 0.291002 7.18774 0.291002 8.23533-3.95761 8.23533-4.16132ZM8.00253-18.1585C8.00253-18.595 7.65334-19.1188 7.01314-19.1188 6.34384-19.1188 5.58722-18.4786 5.58722-17.722 5.58722-16.9945 6.19833-16.7617 6.54752-16.7617 7.33323-16.7617 8.00253-17.5183 8.00253-18.1585Z" transform="matrix(1 0 0 1.00617 964.576 307.455)"/><path d="M7.39143-19.468C7.42054-19.5844 7.47874-19.759 7.47874-19.9045 7.47874-20.1955 7.18774-20.1955 7.12954-20.1955 7.10043-20.1955 6.05282-20.1082 5.52902-20.05 5.03431-20.0209 4.59783-19.9627 4.07401-19.9336 3.37562-19.8754 3.17191-19.8463 3.17191-19.3225 3.17191-19.0315 3.46293-19.0315 3.75393-19.0315 5.23802-19.0315 5.23802-18.7696 5.23802-18.4786 5.23802-18.3622 5.23802-18.304 5.09251-17.7802L1.48411-3.34651C1.39681-3.02642 1.33861-2.79362 1.33861-2.32801 1.33861-0.873004 2.41531 0.291002 3.89941 0.291002 4.85972 0.291002 5.49993-0.349202 5.96553-1.25131 6.46024-2.21161 6.86763-4.04492 6.86763-4.16132 6.86763-4.30681 6.75123-4.42323 6.57664-4.42323 6.31473-4.42323 6.28564-4.27772 6.16924-3.84121 5.64542-1.83331 5.12162-0.291002 3.95761-0.291002 3.08462-0.291002 3.08462-1.22221 3.08462-1.62961 3.08462-1.74601 3.08462-2.35711 3.28831-3.17191L7.39143-19.468Z" transform="matrix(1 0 0 1.00617 974.261 307.455)"/><path d="M5.99462-8.52633C6.05282-8.70095 6.78032-10.1559 7.85705-11.0872 8.61364-11.7855 9.60306-12.2512 10.738-12.2512 11.9019-12.2512 12.3094-11.3782 12.3094-10.2141 12.3094-10.0395 12.3094-9.45755 11.9601-8.08985L11.2326-5.09251C10.9998-4.21952 10.447-2.06611 10.3888-1.74601 10.2723-1.30951 10.0977-0.552902 10.0977-0.436503 10.0977-0.0291002 10.4178 0.291002 10.8544 0.291002 11.7273 0.291002 11.8729-0.378301 12.1348-1.42591L13.8808-8.38084C13.939-8.61364 15.4522-12.2512 18.6532-12.2512 19.8172-12.2512 20.2246-11.3782 20.2246-10.2141 20.2246-8.58453 19.0897-5.41262 18.4495-3.66661 18.1876-2.96822 18.0421-2.58991 18.0421-2.06611 18.0421-0.756603 18.9442 0.291002 20.341 0.291002 23.0473 0.291002 24.0658-3.98672 24.0658-4.16132 24.0658-4.30681 23.9494-4.42323 23.7748-4.42323 23.5129-4.42323 23.4838-4.33592 23.3383-3.84121 22.669-1.51321 21.5923-0.291002 20.4283-0.291002 20.1373-0.291002 19.6717-0.320102 19.6717-1.25131 19.6717-2.00791 20.0209-2.93911 20.1373-3.25922 20.6611-4.65603 21.9706-8.08985 21.9706-9.77765 21.9706-11.5237 20.9521-12.8332 18.7405-12.8332 16.7908-12.8332 15.2194-11.7273 14.0554-10.0105 13.9681-11.5819 13.0078-12.8332 10.8252-12.8332 8.23533-12.8332 6.86763-10.9998 6.34384-10.2723 6.25653-11.9311 5.06343-12.8332 3.78301-12.8332 2.93911-12.8332 2.26981-12.4258 1.71691-11.32 1.19311-10.2723 0.785705-8.49724 0.785705-8.38084 0.785705-8.26444 0.902104-8.11893 1.1058-8.11893 1.33861-8.11893 1.36771-8.14805 1.54231-8.81735 1.97881-10.5342 2.53171-12.2512 3.69573-12.2512 4.36503-12.2512 4.59783-11.7855 4.59783-10.9126 4.59783-10.2723 4.30681-9.13744 4.10312-8.23533L3.28831-5.09251C3.17191-4.53963 2.85182-3.23011 2.70631-2.70631 2.5026-1.94971 2.18251-0.582002 2.18251-0.436503 2.18251-0.0291002 2.5026 0.291002 2.93911 0.291002 3.28831 0.291002 3.69573 0.116401 3.92852-0.320102 3.98672-0.465603 4.24861-1.48411 4.39412-2.06611L5.03431-4.68512 5.99462-8.52633Z" transform="matrix(1 0 0 1.00617 983.357 307.455)"/><path d="M5.84913-11.6983 8.52633-11.6983C9.07924-11.6983 9.37023-11.6983 9.37023-12.2221 9.37023-12.5422 9.19563-12.5422 8.61364-12.5422L6.05282-12.5422 7.12954-16.7908C7.24594-17.1982 7.24594-17.2564 7.24594-17.4601 7.24594-17.9257 6.86763-18.1876 6.48932-18.1876 6.25653-18.1876 5.58722-18.1003 5.35442-17.1691L4.21952-12.5422 1.48411-12.5422C0.902104-12.5422 0.640204-12.5422 0.640204-11.9893 0.640204-11.6983 0.843904-11.6983 1.39681-11.6983L3.98672-11.6983 2.06611-4.01581C1.83331-2.99731 1.74601-2.70631 1.74601-2.32801 1.74601-0.960306 2.70631 0.291002 4.33592 0.291002 7.27503 0.291002 8.84644-3.95761 8.84644-4.16132 8.84644-4.33592 8.73004-4.42323 8.55544-4.42323 8.49724-4.42323 8.38084-4.42323 8.32264-4.30681 8.29353-4.27772 8.26444-4.24861 8.06073-3.78301 7.44963-2.32801 6.11104-0.291002 4.42323-0.291002 3.55022-0.291002 3.49202-1.01851 3.49202-1.65871 3.49202-1.68781 3.49202-2.24071 3.57933-2.58991L5.84913-11.6983Z" transform="matrix(1 0 0 1.00617 1013.04 307.455)"/><path d="M8.17713-19.468C8.20624-19.5844 8.26444-19.759 8.26444-19.9045 8.26444-20.1955 7.97345-20.1955 7.91525-20.1955 7.88614-20.1955 6.46024-20.0791 6.31473-20.05 5.82002-20.0209 5.38353-19.9627 4.85972-19.9336 4.13221-19.8754 3.92852-19.8463 3.92852-19.3225 3.92852-19.0315 4.16132-19.0315 4.56872-19.0315 5.99462-19.0315 6.02373-18.7696 6.02373-18.4786 6.02373-18.304 5.96553-18.0712 5.93642-17.9839L1.71691-1.13491C1.60051-0.698403 1.60051-0.640204 1.60051-0.465603 1.60051 0.174601 2.09521 0.291002 2.38621 0.291002 2.88091 0.291002 3.25922-0.0873004 3.4047-0.407401L4.71423-5.67453C4.85972-6.31473 5.03431-6.92583 5.17982-7.56603 5.49993-8.78824 5.49993-8.81735 6.05282-9.66126 6.6057-10.5052 7.91525-12.2512 10.1559-12.2512 11.32-12.2512 11.7273-11.3782 11.7273-10.2141 11.7273-8.58453 10.5924-5.41262 9.95225-3.66661 9.69034-2.96822 9.54486-2.58991 9.54486-2.06611 9.54486-0.756603 10.447 0.291002 11.8437 0.291002 14.5501 0.291002 15.5686-3.98672 15.5686-4.16132 15.5686-4.30681 15.4522-4.42323 15.2776-4.42323 15.0157-4.42323 14.9866-4.33592 14.8411-3.84121 14.1718-1.51321 13.0951-0.291002 11.9311-0.291002 11.6401-0.291002 11.1744-0.320102 11.1744-1.25131 11.1744-2.00791 11.5237-2.93911 11.6401-3.25922 12.1639-4.65603 13.4734-8.08985 13.4734-9.77765 13.4734-11.5237 12.4549-12.8332 10.2432-12.8332 8.58453-12.8332 7.12954-12.0475 5.93642-10.5342L8.17713-19.468Z" transform="matrix(1 0 0 1.00617 1023.29 307.455)"/><path d="M8.23533-4.16132C8.23533-4.30681 8.11893-4.42323 7.94434-4.42323 7.68243-4.42323 7.65334-4.33592 7.50783-3.84121 6.75123-1.19311 5.55813-0.291002 4.59783-0.291002 4.24861-0.291002 3.84121-0.378301 3.84121-1.25131 3.84121-2.03701 4.19041-2.91002 4.51052-3.78301L6.54752-9.19563C6.63484-9.42843 6.83852-9.95225 6.83852-10.5052 6.83852-11.7273 5.96553-12.8332 4.53963-12.8332 1.86241-12.8332 0.785705-8.61364 0.785705-8.38084 0.785705-8.26444 0.902104-8.11893 1.1058-8.11893 1.36771-8.11893 1.39681-8.23533 1.51321-8.64273 2.21161-11.0872 3.31742-12.2512 4.45232-12.2512 4.71423-12.2512 5.20894-12.2221 5.20894-11.2909 5.20894-10.5342 4.83063-9.57394 4.59783-8.93375L2.5608-3.52113C2.38621-3.05551 2.21161-2.58991 2.21161-2.06611 2.21161-0.756603 3.11371 0.291002 4.51052 0.291002 7.18774 0.291002 8.23533-3.95761 8.23533-4.16132ZM8.00253-18.1585C8.00253-18.595 7.65334-19.1188 7.01314-19.1188 6.34384-19.1188 5.58722-18.4786 5.58722-17.722 5.58722-16.9945 6.19833-16.7617 6.54752-16.7617 7.33323-16.7617 8.00253-17.5183 8.00253-18.1585Z" transform="matrix(1 0 0 1.00617 1039.63 307.455)"/><path d="M11.3782-10.9416C10.8252-10.9416 10.5634-10.9416 10.1559-10.5924 9.98134-10.447 9.66126-10.0105 9.66126-9.54486 9.66126-8.96284 10.0977-8.61364 10.6506-8.61364 11.3491-8.61364 12.1348-9.19563 12.1348-10.3596 12.1348-11.7565 10.7962-12.8332 8.78824-12.8332 4.97611-12.8332 1.16401-8.67184 1.16401-4.53963 1.16401-2.00791 2.73542 0.291002 5.70362 0.291002 9.66126 0.291002 12.1639-2.79362 12.1639-3.17191 12.1639-3.34651 11.9893-3.49202 11.8729-3.49202 11.7855-3.49202 11.7565-3.46293 11.4946-3.20102 9.63214-0.727503 6.86763-0.291002 5.76182-0.291002 3.75393-0.291002 3.11371-2.03701 3.11371-3.49202 3.11371-4.51052 3.60841-7.33323 4.65603-9.31203 5.41262-10.6798 6.98403-12.2512 8.81735-12.2512 9.19563-12.2512 10.7962-12.193 11.3782-10.9416Z" transform="matrix(1 0 0 1.00617 1049.31 307.455)"/><path d="M8.17713-19.468C8.20624-19.5844 8.26444-19.759 8.26444-19.9045 8.26444-20.1955 7.97345-20.1955 7.91525-20.1955 7.88614-20.1955 6.83852-20.1082 6.31473-20.05 5.82002-20.0209 5.38353-19.9627 4.85972-19.9336 4.16132-19.8754 3.95761-19.8463 3.95761-19.3225 3.95761-19.0315 4.24861-19.0315 4.53963-19.0315 6.02373-19.0315 6.02373-18.7696 6.02373-18.4786 6.02373-18.3622 6.02373-18.304 5.87822-17.7802L1.71691-1.13491C1.60051-0.698403 1.60051-0.640204 1.60051-0.465603 1.60051 0.174601 2.09521 0.291002 2.38621 0.291002 3.20102 0.291002 3.37562-0.349202 3.60841-1.25131L4.97611-6.69303C7.07134-6.46024 8.32264-5.58722 8.32264-4.19041 8.32264-4.01581 8.32264-3.89941 8.23533-3.46293 8.11893-3.02642 8.11893-2.67722 8.11893-2.53171 8.11893-0.843904 9.22475 0.291002 10.7088 0.291002 12.0475 0.291002 12.7459-0.931203 12.9786-1.33861 13.5898-2.41531 13.9681-4.04492 13.9681-4.16132 13.9681-4.30681 13.8517-4.42323 13.6771-4.42323 13.4152-4.42323 13.3861-4.30681 13.2697-3.84121 12.8623-2.32801 12.2512-0.291002 10.767-0.291002 10.1851-0.291002 9.80674-0.582002 9.80674-1.68781 9.80674-2.24071 9.92314-2.88091 10.0395-3.31742 10.1559-3.84121 10.1559-3.87032 10.1559-4.21952 10.1559-5.93642 8.61364-6.89672 5.93642-7.24594 6.98403-7.88614 8.03165-9.02104 8.43904-9.45755 10.0977-11.32 11.2326-12.2512 12.5713-12.2512 13.2406-12.2512 13.4152-12.0765 13.6189-11.9019 12.5422-11.7855 12.1348-11.029 12.1348-10.447 12.1348-9.74854 12.6877-9.51574 13.0951-9.51574 13.8808-9.51574 14.5792-10.1851 14.5792-11.1162 14.5792-11.9601 13.9099-12.8332 12.6004-12.8332 10.9998-12.8332 9.69034-11.6983 7.62423-9.37023 7.33323-9.02104 6.25653-7.91525 5.17982-7.50783L8.17713-19.468Z" transform="matrix(1 0 0 1.00617 1061.53 307.455)"/><path d="M5.99462-8.52633C6.05282-8.70095 6.78032-10.1559 7.85705-11.0872 8.61364-11.7855 9.60306-12.2512 10.738-12.2512 11.9019-12.2512 12.3094-11.3782 12.3094-10.2141 12.3094-8.55544 11.1162-5.23802 10.5342-3.66661 10.2723-2.96822 10.1269-2.58991 10.1269-2.06611 10.1269-0.756603 11.029 0.291002 12.4258 0.291002 15.1321 0.291002 16.1506-3.98672 16.1506-4.16132 16.1506-4.30681 16.0342-4.42323 15.8596-4.42323 15.5977-4.42323 15.5686-4.33592 15.4231-3.84121 14.7538-1.45501 13.648-0.291002 12.5131-0.291002 12.2221-0.291002 11.7565-0.320102 11.7565-1.25131 11.7565-1.97881 12.0765-2.85182 12.2512-3.25922 12.8332-4.85972 14.0554-8.11893 14.0554-9.77765 14.0554-11.5237 13.0369-12.8332 10.8252-12.8332 8.23533-12.8332 6.86763-10.9998 6.34384-10.2723 6.25653-11.9311 5.06343-12.8332 3.78301-12.8332 2.85182-12.8332 2.21161-12.2803 1.71691-11.2909 1.19311-10.2432 0.785705-8.49724 0.785705-8.38084 0.785705-8.26444 0.902104-8.11893 1.1058-8.11893 1.33861-8.11893 1.36771-8.14805 1.54231-8.81735 2.00791-10.5924 2.53171-12.2512 3.69573-12.2512 4.36503-12.2512 4.59783-11.7855 4.59783-10.9126 4.59783-10.2723 4.30681-9.13744 4.10312-8.23533L3.28831-5.09251C3.17191-4.53963 2.85182-3.23011 2.70631-2.70631 2.5026-1.94971 2.18251-0.582002 2.18251-0.436503 2.18251-0.0291002 2.5026 0.291002 2.93911 0.291002 3.28831 0.291002 3.69573 0.116401 3.92852-0.320102 3.98672-0.465603 4.24861-1.48411 4.39412-2.06611L5.03431-4.68512 5.99462-8.52633Z" transform="matrix(1 0 0 1.00617 1077.27 307.455)"/><path d="M5.20894-6.75123C5.99462-6.75123 7.97345-6.80943 9.37023-7.33323 11.5819-8.17713 11.7855-9.86494 11.7855-10.3888 11.7855-11.6691 10.6798-12.8332 8.75915-12.8332 5.70362-12.8332 1.30951-10.0687 1.30951-4.88883 1.30951-1.83331 3.05551 0.291002 5.70362 0.291002 9.66126 0.291002 12.1639-2.79362 12.1639-3.17191 12.1639-3.34651 11.9893-3.49202 11.8729-3.49202 11.7855-3.49202 11.7565-3.46293 11.4946-3.20102 9.63214-0.727503 6.86763-0.291002 5.76182-0.291002 4.10312-0.291002 3.23011-1.60051 3.23011-3.75393 3.23011-4.16132 3.23011-4.88883 3.66661-6.75123L5.20894-6.75123ZM3.81213-7.33323C5.06343-11.8147 7.82794-12.2512 8.75915-12.2512 10.0395-12.2512 10.9126-11.4946 10.9126-10.3888 10.9126-7.33323 6.25653-7.33323 5.03431-7.33323L3.81213-7.33323Z" transform="matrix(1 0 0 1.00617 1094.22 307.455)"/><path d="M6.63484-5.82002C7.12954-5.73273 7.91525-5.55813 8.08985-5.52902 8.46813-5.41262 9.77765-4.94703 9.77765-3.55022 9.77765-2.64811 8.96284-0.291002 5.58722-0.291002 4.97611-0.291002 2.79362-0.378301 2.21161-1.97881 3.37562-1.83331 3.95761-2.73542 3.95761-3.37562 3.95761-3.98672 3.55022-4.30681 2.96822-4.30681 2.32801-4.30681 1.48411-3.81213 1.48411-2.5026 1.48411-0.785705 3.23011 0.291002 5.55813 0.291002 9.98134 0.291002 11.2909-2.96822 11.2909-4.48143 11.2909-4.91791 11.2909-5.73273 10.3596-6.66392 9.63214-7.36234 8.93375-7.50783 7.36234-7.82794 6.57664-8.00253 5.32534-8.26444 5.32534-9.57394 5.32534-10.1559 5.84913-12.2512 8.61364-12.2512 9.83585-12.2512 11.029-11.7855 11.32-10.738 10.0395-10.738 9.98134-9.63214 9.98134-9.60306 9.98134-8.99195 10.5342-8.81735 10.7962-8.81735 11.2036-8.81735 12.0183-9.13744 12.0183-10.3596 12.0183-11.5819 10.9126-12.8332 8.64273-12.8332 4.83063-12.8332 3.81213-9.83585 3.81213-8.64273 3.81213-6.43113 5.96553-5.96553 6.63484-5.82002Z" transform="matrix(1 0 0 1.00617 1107.37 307.455)"/><path d="M6.63484-5.82002C7.12954-5.73273 7.91525-5.55813 8.08985-5.52902 8.46813-5.41262 9.77765-4.94703 9.77765-3.55022 9.77765-2.64811 8.96284-0.291002 5.58722-0.291002 4.97611-0.291002 2.79362-0.378301 2.21161-1.97881 3.37562-1.83331 3.95761-2.73542 3.95761-3.37562 3.95761-3.98672 3.55022-4.30681 2.96822-4.30681 2.32801-4.30681 1.48411-3.81213 1.48411-2.5026 1.48411-0.785705 3.23011 0.291002 5.55813 0.291002 9.98134 0.291002 11.2909-2.96822 11.2909-4.48143 11.2909-4.91791 11.2909-5.73273 10.3596-6.66392 9.63214-7.36234 8.93375-7.50783 7.36234-7.82794 6.57664-8.00253 5.32534-8.26444 5.32534-9.57394 5.32534-10.1559 5.84913-12.2512 8.61364-12.2512 9.83585-12.2512 11.029-11.7855 11.32-10.738 10.0395-10.738 9.98134-9.63214 9.98134-9.60306 9.98134-8.99195 10.5342-8.81735 10.7962-8.81735 11.2036-8.81735 12.0183-9.13744 12.0183-10.3596 12.0183-11.5819 10.9126-12.8332 8.64273-12.8332 4.83063-12.8332 3.81213-9.83585 3.81213-8.64273 3.81213-6.43113 5.96553-5.96553 6.63484-5.82002Z" transform="matrix(1 0 0 1.00617 1120.74 307.455)"/><path d="M9.45755 7.07134C9.45755 6.98403 9.45755 6.92583 8.96284 6.43113 6.05282 3.49202 4.42323-1.30951 4.42323-7.24594 4.42323-12.8914 5.79093-17.7511 9.16655-21.1849 9.45755-21.4468 9.45755-21.505 9.45755-21.5923 9.45755-21.7669 9.31203-21.8251 9.19563-21.8251 8.81735-21.8251 6.43113-19.7299 5.00523-16.8781 3.52113-13.939 2.85182-10.8252 2.85182-7.24594 2.85182-4.65603 3.25922-1.19311 4.77243 1.92061 6.48932 5.41262 8.87555 7.30414 9.19563 7.30414 9.31203 7.30414 9.45755 7.24594 9.45755 7.07134Z" transform="matrix(1 0 0 1.00617 1138.96 307.455)"/><path d="M5.99462-8.52633C6.05282-8.70095 6.78032-10.1559 7.85705-11.0872 8.61364-11.7855 9.60306-12.2512 10.738-12.2512 11.9019-12.2512 12.3094-11.3782 12.3094-10.2141 12.3094-8.55544 11.1162-5.23802 10.5342-3.66661 10.2723-2.96822 10.1269-2.58991 10.1269-2.06611 10.1269-0.756603 11.029 0.291002 12.4258 0.291002 15.1321 0.291002 16.1506-3.98672 16.1506-4.16132 16.1506-4.30681 16.0342-4.42323 15.8596-4.42323 15.5977-4.42323 15.5686-4.33592 15.4231-3.84121 14.7538-1.45501 13.648-0.291002 12.5131-0.291002 12.2221-0.291002 11.7565-0.320102 11.7565-1.25131 11.7565-1.97881 12.0765-2.85182 12.2512-3.25922 12.8332-4.85972 14.0554-8.11893 14.0554-9.77765 14.0554-11.5237 13.0369-12.8332 10.8252-12.8332 8.23533-12.8332 6.86763-10.9998 6.34384-10.2723 6.25653-11.9311 5.06343-12.8332 3.78301-12.8332 2.85182-12.8332 2.21161-12.2803 1.71691-11.2909 1.19311-10.2432 0.785705-8.49724 0.785705-8.38084 0.785705-8.26444 0.902104-8.11893 1.1058-8.11893 1.33861-8.11893 1.36771-8.14805 1.54231-8.81735 2.00791-10.5924 2.53171-12.2512 3.69573-12.2512 4.36503-12.2512 4.59783-11.7855 4.59783-10.9126 4.59783-10.2723 4.30681-9.13744 4.10312-8.23533L3.28831-5.09251C3.17191-4.53963 2.85182-3.23011 2.70631-2.70631 2.5026-1.94971 2.18251-0.582002 2.18251-0.436503 2.18251-0.0291002 2.5026 0.291002 2.93911 0.291002 3.28831 0.291002 3.69573 0.116401 3.92852-0.320102 3.98672-0.465603 4.24861-1.48411 4.39412-2.06611L5.03431-4.68512 5.99462-8.52633Z" transform="matrix(1 0 0 1.00617 1150.01 307.455)"/><path d="M5.99462-8.52633C6.05282-8.70095 6.78032-10.1559 7.85705-11.0872 8.61364-11.7855 9.60306-12.2512 10.738-12.2512 11.9019-12.2512 12.3094-11.3782 12.3094-10.2141 12.3094-10.0395 12.3094-9.45755 11.9601-8.08985L11.2326-5.09251C10.9998-4.21952 10.447-2.06611 10.3888-1.74601 10.2723-1.30951 10.0977-0.552902 10.0977-0.436503 10.0977-0.0291002 10.4178 0.291002 10.8544 0.291002 11.7273 0.291002 11.8729-0.378301 12.1348-1.42591L13.8808-8.38084C13.939-8.61364 15.4522-12.2512 18.6532-12.2512 19.8172-12.2512 20.2246-11.3782 20.2246-10.2141 20.2246-8.58453 19.0897-5.41262 18.4495-3.66661 18.1876-2.96822 18.0421-2.58991 18.0421-2.06611 18.0421-0.756603 18.9442 0.291002 20.341 0.291002 23.0473 0.291002 24.0658-3.98672 24.0658-4.16132 24.0658-4.30681 23.9494-4.42323 23.7748-4.42323 23.5129-4.42323 23.4838-4.33592 23.3383-3.84121 22.669-1.51321 21.5923-0.291002 20.4283-0.291002 20.1373-0.291002 19.6717-0.320102 19.6717-1.25131 19.6717-2.00791 20.0209-2.93911 20.1373-3.25922 20.6611-4.65603 21.9706-8.08985 21.9706-9.77765 21.9706-11.5237 20.9521-12.8332 18.7405-12.8332 16.7908-12.8332 15.2194-11.7273 14.0554-10.0105 13.9681-11.5819 13.0078-12.8332 10.8252-12.8332 8.23533-12.8332 6.86763-10.9998 6.34384-10.2723 6.25653-11.9311 5.06343-12.8332 3.78301-12.8332 2.93911-12.8332 2.26981-12.4258 1.71691-11.32 1.19311-10.2723 0.785705-8.49724 0.785705-8.38084 0.785705-8.26444 0.902104-8.11893 1.1058-8.11893 1.33861-8.11893 1.36771-8.14805 1.54231-8.81735 1.97881-10.5342 2.53171-12.2512 3.69573-12.2512 4.36503-12.2512 4.59783-11.7855 4.59783-10.9126 4.59783-10.2723 4.30681-9.13744 4.10312-8.23533L3.28831-5.09251C3.17191-4.53963 2.85182-3.23011 2.70631-2.70631 2.5026-1.94971 2.18251-0.582002 2.18251-0.436503 2.18251-0.0291002 2.5026 0.291002 2.93911 0.291002 3.28831 0.291002 3.69573 0.116401 3.92852-0.320102 3.98672-0.465603 4.24861-1.48411 4.39412-2.06611L5.03431-4.68512 5.99462-8.52633Z" transform="matrix(1 0 0 1.00617 1166.95 307.455)"/><path d="M8.20624-7.24594C8.20624-9.45755 7.91525-13.066 6.28564-16.4416 4.56872-19.9336 2.18251-21.8251 1.86241-21.8251 1.74601-21.8251 1.60051-21.7669 1.60051-21.5923 1.60051-21.505 1.60051-21.4468 2.09521-20.9521 5.00523-18.013 6.63484-13.2115 6.63484-7.27503 6.63484-1.62961 5.26714 3.23011 1.89151 6.66392 1.60051 6.92583 1.60051 6.98403 1.60051 7.07134 1.60051 7.24594 1.74601 7.30414 1.86241 7.30414 2.24071 7.30414 4.62692 5.20894 6.05282 2.35711 7.53694-0.611104 8.20624-3.75393 8.20624-7.24594Z" transform="matrix(1 0 0 1.00617 1191.78 307.455)"/></g></svg>